<svg id="symbol" xmlns="http://www.w3.org/2000/svg" width="64" height="64" viewBox="0 0 64 64"><title>abb-pps-iec-sym-circuit-breaker-rackedin-closed</title><rect id="background" width="64" height="64" style="fill:none"/><rect id="border" x="18" y="18" width="28" height="28" style="fill:#fff;stroke:#0aaeff;stroke-miterlimit:10"/><g id="cb"><line x1="32" y1="24" x2="32" y2="40" style="fill:none;stroke:#0aaeff;stroke-miterlimit:10;stroke-width:2px"/></g><g id="bottom"><circle cx="32" cy="40" r="2" style="fill:#fff"/><path d="M32,38.5A1.5,1.5,0,1,1,30.5,40,1.5,1.5,0,0,1,32,38.5m0-1A2.5,2.5,0,1,0,34.5,40,2.5,2.5,0,0,0,32,37.5Z" style="fill:#0aaeff"/></g><g id="up"><circle cx="32" cy="24" r="2" style="fill:#fff"/><path d="M32,22.5A1.5,1.5,0,1,1,30.5,24,1.5,1.5,0,0,1,32,22.5m0-1A2.5,2.5,0,1,0,34.5,24,2.5,2.5,0,0,0,32,21.5Z" style="fill:#0aaeff"/></g></svg>