<svg xmlns="http://www.w3.org/2000/svg" viewBox="0 0 16 16"><title>16_Globe</title><path d="M8,0a8,8,0,1,0,8,8A8,8,0,0,0,8,0ZM6.69,2.61c0-.05.17-.11.22-.11s.06.1.08.2.34.38.37.4-.05.16-.25.22-.18,0-.2,0a.56.56,0,0,1-.21,0A3.39,3.39,0,0,1,6.69,2.61ZM6.42,3a.33.33,0,0,1,.22.13s-.09.12-.11.15-.1.15-.15.1a.19.19,0,0,1-.06-.13C6.31,3.17,6.42,3,6.42,3Zm-3.9.88c.13-.09.55.22.55.22A.33.33,0,0,0,3,4.33c.29.42.08.63.08.63-.85.52-.72.64-.72.64l.16-.11.11,0S2.26,6.79,2.16,7a4.77,4.77,0,0,1-1,.79A6.88,6.88,0,0,1,2.52,3.88Zm1.71,9c0,.09-.78.19-.78.19A6.93,6.93,0,0,1,1.32,9.52s.81.31,1.24.53.5.7.67.89a1.39,1.39,0,0,0,.56.28,1,1,0,0,0,.27.17,1.08,1.08,0,0,1,.37.25,5.8,5.8,0,0,1-.28.83A1.73,1.73,0,0,1,4.23,12.9ZM4.74,3s-.39.1-.42.27L4,3.38l-.21-.15L3.41,3A5.09,5.09,0,0,1,5.7,1.54s.06.54,0,.56-.24-.12-.45.14S4.85,3.11,4.74,3Zm7.14,8.69c0,.15-.39.47-.55.64l-.29.31V13c0,.25-.39.38-.47.52a1.18,1.18,0,0,1-.47.37,4.92,4.92,0,0,1-.86.13s0-.4,0-.59A1.11,1.11,0,0,0,9,13l0-.21s-.3-.3-.3-.53a1.94,1.94,0,0,1,.21-.63s0-.11,0-.18A3,3,0,0,0,8.69,11a1.08,1.08,0,0,1,0-.25c0-.11-.38-.3-.39-.32a.93.93,0,0,1-.08-.31C8.2,10,8,9.91,8,9.91V9.57c0-.12,0,0-.14,0s-.05,0-.14,0-.12-.29-.12-.29-.16,0-.16,0A2.88,2.88,0,0,1,7,9.65c-.09,0-.24.13-.32.14s-.19.21-.19.21h-.2s-.52-.48-.8-.76a3.57,3.57,0,0,1-.54-.94V7.43a1.18,1.18,0,0,1,.37-.59,6,6,0,0,1,.7-.5s0-.08,0-.14a3.56,3.56,0,0,1,.41-.5h.47a6.2,6.2,0,0,1,.83-.28c.13,0,.23.11.41.11a.43.43,0,0,0,.27-.08,6.28,6.28,0,0,0,.17.63c.05.11.45.16.77.2s.35-.12.49-.15.09.08.25.12a2.5,2.5,0,0,1,.92.26c.54.26.8,1.45.86,1.58s.73,1,.73,1c.55-.12.46,0,.46,0a3.11,3.11,0,0,1-.73,1.06,2.34,2.34,0,0,0-.4.64A3.63,3.63,0,0,0,11.87,11.66Zm.91.47a1.88,1.88,0,0,1-.44.47s0,0-.11,0-.06-.32-.06-.32l.16-.33c.06-.13,0-.25.07-.33s.31-.19.36-.23A2.41,2.41,0,0,0,13,11,2,2,0,0,1,12.79,12.13Zm2-4.59a3.5,3.5,0,0,0-.85-.66l-.25,0a5.81,5.81,0,0,1-.56-.38c-.06-.07-.17-.07-.14,0s.23.34.23.35.06.19.18.22a.82.82,0,0,0,.29,0s.29.35.28.46a6.23,6.23,0,0,1-1,.71.66.66,0,0,1-.22,0c-.11,0-.26-.06-.26-.2s0-.18,0-.24-1.16-1.62-1.16-1.65-.23,0-.23,0H11V5.47s0,.22-.14.22-.38-.48-.38-.66.51-.36.51-.36a2.63,2.63,0,0,1,.33,0,4,4,0,0,0,.63.08c.05,0,0-.24,0-.24a.78.78,0,0,0-.53-.22s0,0,.21-.24a.59.59,0,0,0-.28,0,1.51,1.51,0,0,0-.71.39s0,.44,0,.44L10.42,5H10s-.17,0,0,.19a1,1,0,0,1-.29-.56,3,3,0,0,0-.8-.51l-.19.2.21.33h0c.08,0,.1,0,.1,0v.17a1.22,1.22,0,0,0-.11-.19c-.09,0-.27-.33-.4-.34H8.28s-.38.09-.47.23l-.09,0s-.44.62-.58.64-.11.11-.43,0l-.37-.09s-.18-.56.07-.8c0,0,.77-.1.86-.38,0,0-.2-.28,0-.37A4.51,4.51,0,0,0,8,3.21c.08-.09.07-.37.52-.43,0,0,.34.4.52.41a.5.5,0,0,0,.46-.37c0-.21-.18-.46-.18-.46a2.72,2.72,0,0,1-.27.46.37.37,0,0,1-.43-.14c-.16-.22-.13-.28-.13-.28a.88.88,0,0,0-.41.06s0-.46.29-.46h.23a1.75,1.75,0,0,1,.79-.33c.34,0,.39,0,.39,0l1.07-.06a.6.6,0,0,1,.31.23.73.73,0,0,0,.29.25A.54.54,0,0,0,11.78,2a7.34,7.34,0,0,1,3.38,6.45h0S14.81,7.58,14.78,7.54Z" fill="#464646"/></svg>