<svg xmlns="http://www.w3.org/2000/svg" viewBox="0 0 16 16"><title>16_Hide</title><path d="M6.82,4.13,6,3.32A6.64,6.64,0,0,1,8,3c4.28,0,7.64,4.51,7.78,4.7L16,8l-.22.3a15,15,0,0,1-2.36,2.44L12.71,10a14.9,14.9,0,0,0,2-2C13.94,7,11.18,4,8,4A5.41,5.41,0,0,0,6.82,4.13ZM8,12C4.82,12,2.06,9,1.26,8a14.89,14.89,0,0,1,2-2l-.71-.71A15,15,0,0,0,.22,7.7L0,8l.22.3C.36,8.49,3.72,13,8,13a6.64,6.64,0,0,0,2-.32l-.81-.81A5.42,5.42,0,0,1,8,12Zm.29-1L5,7.72C5,7.81,5,7.9,5,8a3,3,0,0,0,3,3ZM7.72,5,11,8.28c0-.09,0-.19,0-.28A3,3,0,0,0,8,5ZM.77.06.06.77,15.25,16l.71-.71Z" fill="#464646"/></svg>