<svg xmlns="http://www.w3.org/2000/svg" viewBox="0 0 16 16"><title>16_Link</title><path d="M10,6.11a3.59,3.59,0,0,1,0,5.07L6.24,15a3.59,3.59,0,0,1-5.07,0L1,14.85A3.59,3.59,0,0,1,1,9.77L3.42,7.4a5.1,5.1,0,0,0,.34,1.79L2.11,10.84a2.09,2.09,0,0,0,0,2.95l.12.12a2.09,2.09,0,0,0,2.95,0L9,10.12A2.09,2.09,0,0,0,9,7.17l-.12-.12a2.05,2.05,0,0,0-.48-.35L9.45,5.62A3.56,3.56,0,0,1,9.9,6ZM15,1.18l-.12-.12a3.67,3.67,0,0,0-5.07,0L6,4.84a3.58,3.58,0,0,0-.5.65h0c0,.06-.06.13-.1.2a3.58,3.58,0,0,0-.18.36,3.56,3.56,0,0,0-.13.42c0,.07,0,.14-.06.21a3.6,3.6,0,0,0-.07.69h0s0,0,0,0A3.66,3.66,0,0,0,5,8H5a3.55,3.55,0,0,0,1,2L6.1,10a3.56,3.56,0,0,0,.47.38L7.65,9.32A2.05,2.05,0,0,1,7.16,9L7,8.85A2.08,2.08,0,0,1,6.58,6.6h0a2.07,2.07,0,0,1,.46-.71L7.94,5h0l2.88-2.88a2.08,2.08,0,0,1,2.95,0l.12.12a2.09,2.09,0,0,1,0,2.95L12.12,7a5.08,5.08,0,0,1,.34,1.79L15,6.25A3.59,3.59,0,0,0,15,1.18Z" fill="#464646"/></svg>