<svg xmlns="http://www.w3.org/2000/svg" viewBox="0 0 16 16"><title>16_Numericals</title><path d="M1.68,13V6.7H0V5.22a2.54,2.54,0,0,0,.7-.08,1.54,1.54,0,0,0,.51-.25A2.16,2.16,0,0,0,2,3.29H3V13ZM7.73,3.1a2,2,0,0,1,.89.2,2.18,2.18,0,0,1,.73.63,2.82,2.82,0,0,1,.48,1A4.53,4.53,0,0,1,10,6.13a4.44,4.44,0,0,1-.31,1.69A5,5,0,0,1,8.39,9.47l-.6.58a5.57,5.57,0,0,0-.41.46,4.23,4.23,0,0,0-.51.79H10V13H5.13a5.65,5.65,0,0,1,.23-1.7,4.82,4.82,0,0,1,.29-.7A4.28,4.28,0,0,1,6,10a9.64,9.64,0,0,1,.64-.74q.42-.45,1-1a3.24,3.24,0,0,0,.7-.91,2.23,2.23,0,0,0,.22-1,2.59,2.59,0,0,0-.07-.6,1.56,1.56,0,0,0-.2-.49.92.92,0,0,0-.29-.3.73.73,0,0,0-.4-.11.8.8,0,0,0-.49.15,1.18,1.18,0,0,0-.34.39,1.93,1.93,0,0,0-.2.54,3.05,3.05,0,0,0-.06.62v.15H5.31V6.47a5.2,5.2,0,0,1,.18-1.42A3.29,3.29,0,0,1,6,4a2.18,2.18,0,0,1,.77-.66A2.11,2.11,0,0,1,7.73,3.1Zm5.61,0a2,2,0,0,1,1.53.69,2.58,2.58,0,0,1,.49.84,3.35,3.35,0,0,1,.18,1.15,3.6,3.6,0,0,1-.06.67A2.48,2.48,0,0,1,15.3,7a1.71,1.71,0,0,1-.29.45,1.26,1.26,0,0,1-.41.3v0a1.54,1.54,0,0,1,.87.79A3,3,0,0,1,15.79,10a3.55,3.55,0,0,1-.72,2.31,2.22,2.22,0,0,1-2.71.68,2.25,2.25,0,0,1-.78-.61,3,3,0,0,1-.54-1,4.22,4.22,0,0,1-.2-1.36V9.92h1.28V10a2.09,2.09,0,0,0,.1.68,1.51,1.51,0,0,0,.25.47,1,1,0,0,0,.35.28.92.92,0,0,0,.39.09,1.11,1.11,0,0,0,.48-.11.93.93,0,0,0,.38-.33,1.89,1.89,0,0,0,.3-1.1A1.65,1.65,0,0,0,14.08,9,1.38,1.38,0,0,0,13,8.6h-.15V7.22h.23A1.15,1.15,0,0,0,14,6.85,1.24,1.24,0,0,0,14.25,6a2.06,2.06,0,0,0-.07-.58A1.14,1.14,0,0,0,14,5a.78.78,0,0,0-.3-.23.94.94,0,0,0-.37-.07.87.87,0,0,0-.37.08.9.9,0,0,0-.32.26,1.38,1.38,0,0,0-.23.45,2.38,2.38,0,0,0-.1.66H11a4.76,4.76,0,0,1,.2-1.26,3.14,3.14,0,0,1,.48-1,2.15,2.15,0,0,1,.73-.62A2,2,0,0,1,13.34,3.1Z" fill="#464646"/></svg>