<svg xmlns="http://www.w3.org/2000/svg" viewBox="0 0 16 16"><title>16_UserInCircle</title><circle cx="8" cy="6" r="3" fill="#464646"/><path d="M16,8A8,8,0,1,0,2.57,13.86l0,0q.28.26.58.49l.08.06q.28.21.59.39L4,14.9c.19.11.38.21.58.31l.17.08.57.23.21.08.57.16.24.06.6.1.24,0a7.79,7.79,0,0,0,1.71,0l.24,0,.6-.1.24-.06.57-.16.21-.08.57-.23.17-.08c.2-.09.39-.2.58-.31l.12-.07q.3-.18.59-.39l.08-.06q.3-.23.58-.49l0,0A8,8,0,0,0,16,8ZM8,1a7,7,0,0,1,5.64,11.12C12.82,10.9,10.61,10,8,10s-4.82.9-5.64,2.12A7,7,0,0,1,8,1Z" fill="#464646"/></svg>