<?xml version="1.0" standalone="no"?>
<!DOCTYPE svg PUBLIC "-//W3C//DTD SVG 1.1//EN" "http://www.w3.org/Graphics/SVG/1.1/DTD/svg11.dtd" >
<svg xmlns="http://www.w3.org/2000/svg">
<metadata>Generated by IcoMoon</metadata>
<defs>
<font id="abb-icons-20" horiz-adv-x="1024">
<font-face units-per-em="1024" ascent="960" descent="-64" />
<missing-glyph horiz-adv-x="1024" />
<glyph unicode="&#x20;" horiz-adv-x="512" d="" />
<glyph unicode="&#xe900;" glyph-name="calendar" d="M870.4 870.4v51.2h-307.2v-51.2h-102.4v51.2h-307.2v-51.2h-51.2v-819.2h819.2v819.2h-51.2zM768 870.4h51.2v-102.4h-51.2v102.4zM665.6 870.4v-102.4h-51.2v102.4h51.2zM358.4 870.4h51.2v-102.4h-51.2v102.4zM204.8 870.4h51.2v-102.4h-51.2v102.4zM870.4 102.4h-716.8v614.4h716.8v-614.4zM256 614.4h102.4v-102.4h-102.4v102.4zM460.8 614.4h102.4v-102.4h-102.4v102.4zM665.6 614.4h102.4v-102.4h-102.4v102.4zM460.8 460.8h102.4v-102.4h-102.4v102.4zM665.6 460.8h102.4v-102.4h-102.4v102.4zM256 460.8h102.4v-102.4h-102.4v102.4zM460.8 307.2h102.4v-102.4h-102.4v102.4zM256 307.2h102.4v-102.4h-102.4v102.4z" />
<glyph unicode="&#xe901;" glyph-name="computer" d="M819.2 768v-409.6h-614.4v409.6h614.4zM921.6 870.4h-819.2v-614.4h819.2v614.4zM614.4 204.8v-51.2h-204.8v51.2h-307.2l-51.2-153.6h921.6l-51.2 153.6z" />
<glyph unicode="&#xe902;" glyph-name="delete" d="M808.96 675.84l-81.92 81.92-215.040-215.040-215.040 215.040-81.92-81.92 215.040-215.040-215.040-215.040 81.92-81.92 215.040 215.040 215.040-215.040 81.92 81.92-215.040 215.040z" />
<glyph unicode="&#xe903;" glyph-name="down" d="M512 194.56l-363.52 404.48 87.040 81.92 276.48-312.32 276.48 312.32 87.040-81.92z" />
<glyph unicode="&#xe904;" glyph-name="download" d="M614.4 614.4v256h-204.8v-256h-153.6l256-358.4 256 358.4zM256 153.6h102.4v-102.4h-102.4v102.4zM460.8 153.6h102.4v-102.4h-102.4v102.4zM665.6 153.6h102.4v-102.4h-102.4v102.4z" />
<glyph unicode="&#xe905;" glyph-name="edit" d="M751.553 871.475l173.777-173.777-108.611-108.611-173.777 173.777 108.611 108.611zM578.56 696.32l-389.12-384-87.040-261.12 261.12 87.040 384 389.12z" />
<glyph unicode="&#xe906;" glyph-name="envelope" d="M972.8 266.24v394.24l-261.12-174.080zM512 450.56l460.8 312.32v5.12h-921.6v-5.12zM312.32 486.4l-261.12 174.080v-394.24zM640 440.32l-128-87.040-128 87.040-332.8-281.6v-5.12h921.6v5.12z" />
<glyph unicode="&#xe907;" glyph-name="export" d="M358.4 51.2h-256v819.2h256v-102.4h-153.6v-614.4h153.6zM921.6 460.8l-358.4 256v-153.6h-256v-204.8h256v-153.6z" />
<glyph unicode="&#xe908;" glyph-name="forward" d="M373.76 97.28l-81.92 87.040 312.32 276.48-312.32 276.48 81.92 87.040 404.48-363.52z" />
<glyph unicode="&#xe909;" glyph-name="forwardarrow" d="M870.4 460.8l-358.4 307.2v-204.8h-358.4v-204.8h358.4v-204.8z" />
<glyph unicode="&#xe90a;" glyph-name="globe" d="M558.080 686.080l10.24-10.24c0 0 25.6-15.36 35.84-25.6 0 5.12 0 5.12-5.12 10.24 5.12-5.12-25.6 25.6-40.96 25.6zM506.88 921.6c-250.88 0-455.68-209.92-455.68-465.92s209.92-460.8 465.92-455.68 460.8 209.92 455.68 465.92c0 250.88-209.92 455.68-465.92 455.68zM435.2 768c0 5.12 10.24 5.12 15.36 5.12s5.12-5.12 5.12-10.24c0-5.12 20.48-20.48 20.48-20.48s-5.12-10.24-15.36-10.24c-10.24-5.12-10.24 0-10.24 0s-10.24 0-10.24 0c-5.12-5.12-5.12 35.84-5.12 35.84zM419.84 747.52c5.12 0 10.24-5.12 10.24-5.12s-5.12-10.24-5.12-10.24c0 0-5.12-10.24-10.24-5.12 0 5.12 0 5.12 0 5.12s5.12 15.36 5.12 15.36zM179.2 701.44c10.24 5.12 5.12 0 0 0 0-10.24 0-15.36 0-15.36 15.36-25.6 5.12-35.84 5.12-35.84-46.080-35.84-40.96-40.96-40.96-40.96l10.24 5.12h5.12c0 0-35.84-56.32-40.96-71.68-5.12-10.24-15.36-71.68-15.36-71.68 0 122.88 76.8 230.4 76.8 230.4zM261.12 163.84c0-5.12-25.6-10.24-25.6-10.24-97.28 87.040-122.88 209.92-122.88 209.92s25.6-20.48 51.2-35.84c25.6-15.36 30.72-40.96 40.96-51.2s30.72-15.36 30.72-15.36 5.12-5.12 15.36-10.24 20.48-10.24 20.48-15.36c0-5.12-15.36-51.2-15.36-51.2s10.24-15.36 5.12-20.48zM327.68 814.080c-15.36-10.24-25.6-30.72-25.6-30.72s-25.6-20.48-25.6-30.72l-20.48-5.12-10.24 5.12h-15.36c0 0 30.72 46.080 133.12 87.040 0 0-5.12-15.36-10.24-15.36s-10.24 0-25.6-10.24zM788.48 225.28c-10.24-15.36-25.6-25.6-25.6-25.6s-5.12 0-5.12 0-5.12 20.48-5.12 20.48 5.12 10.24 10.24 20.48c5.12 10.24 0 15.36 5.12 20.48 0 5.12 15.36 10.24 20.48 15.36 5.12 0 10.24 20.48 10.24 20.48 0-10.24 0-56.32-10.24-71.68zM803.84 414.72c-5.12-20.48-35.84-51.2-40.96-61.44-5.12-5.12-15.36-25.6-20.48-35.84s0-51.2 0-51.2c0-10.24-20.48-25.6-30.72-35.84s-10.24-15.36-10.24-15.36v-25.6c-20.48-15.36-25.6-20.48-30.72-30.72s-20.48-15.36-30.72-20.48c-10.24-5.12-51.2-5.12-51.2-5.12s0 20.48 0 30.72c0 10.24-10.24 25.6-10.24 25.6l-5.12 15.36c0 0-15.36 15.36-15.36 30.72s10.24 35.84 10.24 35.84 0 5.12 0 10.24-5.12 20.48-5.12 20.48 0 10.24 0 15.36c0 5.12-20.48 15.36-20.48 15.36s0 10.24 0 15.36c0 5.12-5.12 10.24-5.12 10.24s0 10.24 0 20.48c0 5.12-10.24 0-15.36 0s-10.24 0-15.36 0c-5.12 0-5.12 15.36-5.12 15.36-5.12 5.12-10.24 0-10.24 0s-20.48-10.24-25.6-15.36-15.36-5.12-20.48-5.12c-5.12 0-10.24-5.12-10.24-5.12h-10.24c0 0-25.6 20.48-40.96 35.84s-25.6 46.080-25.6 46.080 0 40.96 0 51.2 0 25.6 15.36 35.84c10.24 15.36 35.84 30.72 35.84 30.72s0 5.12 0 10.24c0 5.12 25.6 30.72 25.6 30.72h25.6c0 0 40.96 15.36 46.080 15.36 5.12-5.12 10.24-10.24 20.48-10.24s15.36 5.12 15.36 5.12 5.12-30.72 10.24-35.84c5.12-5.12 25.6-10.24 46.080-10.24s20.48 5.12 25.6 10.24c5.12 0 5.12-5.12 15.36-5.12s20.48 0 51.2-15.36c30.72-15.36 46.080-81.92 51.2-87.040s40.96-56.32 40.96-56.32c25.6 0 20.48-5.12 20.48-5.12zM901.12 491.52c0 0-30.72 30.72-51.2 35.84h-15.36c0 0-30.72 15.36-30.72 20.48-5.12 5.12-10.24 5.12-10.24 0s15.36-20.48 15.36-20.48c0 0 5.12-10.24 10.24-10.24s15.36 0 15.36 0 15.36-20.48 15.36-25.6c0-5.12-56.32-40.96-56.32-40.96s-5.12 0-10.24 0-15.36 0-15.36 10.24c0 10.24 0 10.24 0 15.36s-66.56 92.16-66.56 92.16c0 0 0 0 0 0h10.24v35.84c0 0-15.36-10.24-20.48-10.24s-30.72 25.6-30.72 35.84c0 10.24 25.6 20.48 25.6 20.48s10.24 0 15.36 0c5.12 0 30.72-5.12 35.84-5.12s0 15.36 0 15.36-10.24 10.24-30.72 10.24c0 0 0 5.12 10.24 15.36 0 0-5.12 5.12-15.36 0-10.24 0-35.84-15.36-40.96-20.48 0 0 0-20.48 0-20.48s-15.36-5.12-15.36-5.12h-25.6c0 0-10.24-5.12 0-15.36 0 0-5.12 5.12-10.24 10.24h-30.72l-5.12 10.24c0 0-5.12 0-10.24 0s-15.36 20.48-25.6 20.48-15.36 0-15.36 0-15.36 0-20.48-5.12c0 0-5.12 0-5.12 0s-25.6-35.84-35.84-40.96c-10.24 0-5.12-5.12-25.6 0s-20.48 5.12-20.48 5.12-10.24 30.72 5.12 46.080c0 0 46.080 5.12 51.2 20.48 0 0-10.24 15.36 0 20.48s35.84 20.48 40.96 25.6 5.12 20.48 30.72 25.6c0 0 20.48-20.48 30.72-25.6s25.6 10.24 25.6 20.48c0 10.24-10.24 25.6-10.24 25.6s-15.36-25.6-15.36-25.6-15.36-5.12-25.6 10.24c-10.24 10.24-10.24 15.36-10.24 15.36s-10.24 5.12-25.6 0c0 0 0 20.48 15.36 30.72h15.36c0 0 25.6 15.36 46.080 15.36s25.6-5.12 25.6-5.12l61.44 5.12c0 0 15.36-5.12 20.48-15.36s15.36-15.36 15.36-15.36 10.24 0 20.48 10.24c0 0 194.56-107.52 194.56-368.64h-5.12c0 0-20.48 46.080-20.48 51.2z" />
<glyph unicode="&#xe90b;" glyph-name="import" d="M358.4 51.2h-256v819.2h256v-102.4h-153.6v-614.4h153.6zM921.6 563.2h-256v153.6l-358.4-256 358.4-256v153.6h256z" />
<glyph unicode="&#xe90c;" glyph-name="location" d="M512 921.6c-184.32 0-332.8-143.36-332.8-322.56s332.8-599.040 332.8-599.040 332.8 419.84 332.8 599.040c0 179.2-148.48 322.56-332.8 322.56zM512 409.6c-97.28 0-179.2 81.92-179.2 179.2s81.92 179.2 179.2 179.2 179.2-81.92 179.2-179.2c0-97.28-81.92-179.2-179.2-179.2z" />
<glyph unicode="&#xe90d;" glyph-name="menu" d="M153.6 768h716.8v-102.4h-716.8v102.4zM153.6 512h716.8v-102.4h-716.8v102.4zM153.6 256h716.8v-102.4h-716.8v102.4z" />
<glyph unicode="&#xe90e;" glyph-name="pause" d="M256 768h153.6v-614.4h-153.6v614.4zM614.4 768h153.6v-614.4h-153.6v614.4z" />
<glyph unicode="&#xe90f;" glyph-name="play" d="M256 768v-614.4l614.4 307.2z" />
<glyph unicode="&#xe910;" glyph-name="save" d="M307.2 358.4h409.6v-51.2h-409.6v51.2zM307.2 256h409.6v-51.2h-409.6v51.2zM563.2 768h102.4v-153.6h-102.4v153.6zM768 870.4h-665.6v-819.2h819.2v665.6l-153.6 153.6zM768 819.2v-256h-512v256h512zM819.2 102.4h-614.4v358.4h614.4v-358.4z" />
<glyph unicode="&#xe911;" glyph-name="search" d="M957.44 107.52l-291.84 291.84c30.72 46.080 46.080 102.4 46.080 163.84 0 168.96-138.24 307.2-307.2 307.2s-302.080-138.24-302.080-307.2 138.24-307.2 307.2-307.2c61.44 0 117.76 15.36 163.84 46.080l291.84-291.84 92.16 97.28zM409.6 378.88c-102.4 0-184.32 81.92-184.32 184.32s81.92 184.32 184.32 184.32 184.32-81.92 184.32-184.32-81.92-184.32-184.32-184.32z" />
<glyph unicode="&#xe912;" glyph-name="settings" d="M972.8 404.48v112.64l-158.72 30.72c-5.12 20.48-15.36 40.96-25.6 61.44l87.040 133.12-81.92 81.92-128-87.040c-20.48 10.24-40.96 20.48-61.44 25.6l-35.84 158.72h-112.64l-30.72-158.72c-25.6-5.12-46.080-15.36-66.56-25.6l-133.12 92.16-81.92-81.92 92.16-133.12c-10.24-20.48-20.48-40.96-25.6-66.56l-158.72-30.72v-112.64l158.72-30.72c5.12-20.48 15.36-40.96 25.6-61.44l-87.040-133.12 81.92-81.92 128 87.040c20.48-10.24 40.96-20.48 61.44-25.6l35.84-158.72h112.64l30.72 158.72c20.48 5.12 40.96 15.36 61.44 25.6l133.12-87.040 81.92 81.92-87.040 128c10.24 20.48 20.48 40.96 25.6 61.44l158.72 35.84zM691.2 460.8c0-97.28-81.92-179.2-179.2-179.2s-179.2 81.92-179.2 179.2c0 97.28 81.92 179.2 179.2 179.2s179.2-81.92 179.2-179.2z" />
<glyph unicode="&#xe913;" glyph-name="skip_to_end" d="M716.8 768h153.6v-614.4h-153.6v614.4zM153.6 768v-614.4l512 307.2z" />
<glyph unicode="&#xe914;" glyph-name="skip_to_start" d="M153.6 768h153.6v-614.4h-153.6v614.4zM870.4 153.6v614.4l-512-307.2z" />
<glyph unicode="&#xe915;" glyph-name="smartphone" d="M153.6 921.6v-921.6h716.8v921.6h-716.8zM563.2 51.2h-102.4v102.4h102.4v-102.4zM768 204.8h-512v614.4h512v-614.4z" />
<glyph unicode="&#xe916;" glyph-name="stop" d="M256 716.8h512v-512h-512v512z" />
<glyph unicode="&#xe917;" glyph-name="system" d="M972.8 665.6v204.8h-256v-102.4h-256v-256h-153.6v51.2h-256v-204.8h256v102.4h153.6v-307.2h256v-102.4h256v204.8h-256v-51.2h-204.8v256h204.8v-102.4h256v204.8h-256v-51.2h-204.8v204.8h204.8v-51.2z" />
<glyph unicode="&#xe918;" glyph-name="trash-20" d="M153.6 716.8v-665.6h665.6v665.6h-665.6zM358.4 153.6h-51.2v460.8h51.2v-460.8zM512 153.6h-51.2v460.8h51.2v-460.8zM665.6 153.6h-51.2v460.8h51.2v-460.8zM614.4 819.2v102.4h-256v-102.4h-256v-51.2h768v51.2h-256zM409.6 819.2v51.2h153.6v-51.2h-153.6z" />
<glyph unicode="&#xe919;" glyph-name="up-20" d="M788.48 240.64l-276.48 312.32-276.48-312.32-87.040 81.92 363.52 404.48 363.52-404.48z" />
<glyph unicode="&#xe91a;" glyph-name="upload-20" d="M768 307.2l-256 358.4-256-358.4h153.6v-256h204.8v256zM665.6 870.4h102.4v-102.4h-102.4v102.4zM460.8 870.4h102.4v-102.4h-102.4v102.4zM256 870.4h102.4v-102.4h-102.4v102.4z" />
<glyph unicode="&#xe91b;" glyph-name="user" d="M512 460.8c-199.68 0-358.4-87.040-358.4-184.32v-225.28h716.8v225.28c0 97.28-158.72 184.32-358.4 184.32zM691.2 691.2c0-98.969-80.231-179.2-179.2-179.2s-179.2 80.231-179.2 179.2c0 98.969 80.231 179.2 179.2 179.2s179.2-80.231 179.2-179.2z" />
<glyph unicode="&#xe91c;" glyph-name="arrow_down" d="M614.4 460.8v358.4h-204.8v-358.4h-204.8l307.2-358.4 307.2 358.4z" />
<glyph unicode="&#xe91d;" glyph-name="arrow_up" d="M819.2 460.8l-307.2 358.4-307.2-358.4h204.8v-358.4h204.8v358.4z" />
<glyph unicode="&#xe91e;" glyph-name="back" d="M650.24 97.28l-404.48 363.52 404.48 363.52 81.92-87.040-312.32-276.48 312.32-276.48z" />
<glyph unicode="&#xe91f;" glyph-name="back_arrow" d="M870.4 563.2h-358.4v204.8l-358.4-307.2 358.4-307.2v204.8h358.4z" />
</font>
</defs>
</svg>
