<?xml version="1.0" encoding="utf-8"?>
<!-- Generator: Adobe Illustrator 19.1.0, SVG Export Plug-In . SVG Version: 6.00 Build 0)  -->
<svg version="1.1" id="Icon" xmlns="http://www.w3.org/2000/svg" xmlns:xlink="http://www.w3.org/1999/xlink" x="0px" y="0px"
	 viewBox="0 0 24 24" style="enable-background:new 0 0 24 24;" xml:space="preserve">
<style type="text/css">
	.st0{fill:#464646;}
</style>
<g>
	<rect x="7" y="9" class="st0" width="2" height="2"/>
	<rect x="7" y="12" class="st0" width="2" height="2"/>
	<rect x="7" y="15" class="st0" width="2" height="2"/>
	<rect x="11" y="9" class="st0" width="2" height="2"/>
	<rect x="11" y="12" class="st0" width="2" height="2"/>
	<rect x="11" y="15" class="st0" width="2" height="2"/>
	<rect x="15" y="9" class="st0" width="2" height="2"/>
	<rect x="15" y="12" class="st0" width="2" height="2"/>
	<path class="st0" d="M20,3V1h-3v2h-1V1h-3v2h-2V1H8v2H7V1H4v2H2v19h20V3H20z M18,2h1v2h-1V2z M14,2h1v2h-1V2z M9,2h1v2H9V2z M5,2h1
		v2H5V2z M20,20H4V6h16V20z"/>
</g>
</svg>
