<?xml version="1.0" encoding="utf-8"?>
<!-- Generator: Adobe Illustrator 19.1.0, SVG Export Plug-In . SVG Version: 6.00 Build 0)  -->
<svg version="1.1" id="Icon" xmlns="http://www.w3.org/2000/svg" xmlns:xlink="http://www.w3.org/1999/xlink" x="0px" y="0px"
	 viewBox="0 0 20 20" style="enable-background:new 0 0 20 20;" xml:space="preserve">
<style type="text/css">
	.st0{fill:#464646;}
</style>
<g>
	<path class="st0" d="M17,2V1h-3h-3v1H9V1H6H3v1H2v2v3v11h16V7V4V2H17z M15,2h1v2h-1V2z M13,2v2h-1V2H13z M7,2h1v2H7V2z M4,2h1v2H4
		V2z M17,17H3V5h14V17z"/>
	<rect x="5" y="7" class="st0" width="2" height="2"/>
	<rect x="9" y="7" class="st0" width="2" height="2"/>
	<rect x="13" y="7" class="st0" width="2" height="2"/>
	<rect x="9" y="10" class="st0" width="2" height="2"/>
	<rect x="13" y="10" class="st0" width="2" height="2"/>
	<rect x="5" y="10" class="st0" width="2" height="2"/>
	<rect x="9" y="13" class="st0" width="2" height="2"/>
	<rect x="5" y="13" class="st0" width="2" height="2"/>
</g>
</svg>
