<?xml version="1.0" encoding="utf-8"?>
<!-- Generator: Adobe Illustrator 19.1.0, SVG Export Plug-In . SVG Version: 6.00 Build 0)  -->
<svg version="1.1" id="Icon" xmlns="http://www.w3.org/2000/svg" xmlns:xlink="http://www.w3.org/1999/xlink" x="0px" y="0px"
	 viewBox="0 0 18 18" style="enable-background:new 0 0 18 18;" xml:space="preserve">
<style type="text/css">
	.st0{fill:#464646;}
</style>
<path class="st0" d="M9,1C4.6,1,1,4.6,1,9s3.6,8,8,8s8-3.6,8-8S13.4,1,9,1z M7.7,3.6c0-0.1,0.2-0.1,0.2-0.1S8,3.6,8,3.7
	c0,0.1,0.3,0.4,0.4,0.4S8.3,4.3,8.1,4.3s-0.2,0-0.2,0c0,0-0.2,0-0.2,0S7.7,3.6,7.7,3.6z M7.4,4c0.1,0,0.2,0.1,0.2,0.1
	c0,0-0.1,0.1-0.1,0.2S7.4,4.4,7.4,4.4C7.3,4.3,7.3,4.3,7.3,4.2C7.3,4.2,7.4,4,7.4,4z M3.5,4.9C3.7,4.8,3.6,4.9,3.5,4.9
	c0,0.1,0,0.3,0,0.3c0.3,0.4,0.1,0.6,0.1,0.6C2.8,6.3,2.9,6.4,2.9,6.4L3,6.3l0.1,0c0,0-0.7,1-0.8,1.2C2.3,7.8,2.2,8.8,2.2,8.8
	C2.1,6.7,3.5,4.9,3.5,4.9z M4.9,13.9c0,0.1-0.4,0.1-0.4,0.1c-1.7-1.5-2.1-3.6-2.1-3.6s0.5,0.3,0.9,0.6s0.5,0.7,0.7,0.9
	c0.2,0.2,0.6,0.3,0.6,0.3s0.1,0.1,0.3,0.2s0.3,0.2,0.4,0.2s-0.3,0.8-0.3,0.8S4.9,13.9,4.9,13.9z M5.6,3.6c0,0-0.4,0.3-0.4,0.5
	L4.8,4.1L4.6,4L4.4,4c0,0,0.5-0.8,2.3-1.5c0,0-0.1,0.2-0.2,0.2c-0.1,0-0.2,0-0.4,0.2C5.9,3.2,5.6,3.6,5.6,3.6z M12.8,12.6
	c0,0.1-0.4,0.5-0.5,0.6c-0.2,0.2-0.3,0.3-0.3,0.3V14c0,0.2-0.4,0.4-0.5,0.5c-0.1,0.1-0.3,0.3-0.5,0.4c-0.2,0.1-0.8,0.1-0.8,0.1
	s0-0.4,0-0.6c0-0.2-0.2-0.5-0.2-0.5l0-0.2c0,0-0.3-0.3-0.3-0.5s0.2-0.6,0.2-0.6s0-0.1,0-0.2c0-0.1-0.2-0.4-0.2-0.4s0-0.1,0-0.2
	c0-0.1-0.4-0.3-0.4-0.3s-0.1-0.2-0.1-0.3C9.2,11,9,10.9,9,10.9s0-0.2,0-0.3c0-0.1,0,0-0.1,0s-0.1,0-0.1,0c-0.1,0-0.1-0.3-0.1-0.3
	c-0.1-0.1-0.2,0-0.2,0S8.1,10.6,8,10.7c-0.1,0-0.2,0.1-0.3,0.1c-0.1,0-0.2,0.2-0.2,0.2H7.3c0,0-0.5-0.5-0.8-0.7C6.3,10,6,9.3,6,9.3
	s0-0.7,0-0.9c0-0.1,0.2-0.4,0.4-0.6C6.6,7.7,7,7.4,7,7.4s0-0.1,0-0.1c0-0.1,0.4-0.5,0.4-0.5l0.5,0c0,0,0.7-0.3,0.8-0.3
	S9,6.6,9.1,6.6s0.3-0.1,0.3-0.1S9.5,7,9.6,7.1s0.4,0.2,0.8,0.2s0.3-0.1,0.5-0.1c0.1,0,0.1,0.1,0.2,0.1c0.2,0,0.4,0,0.9,0.3
	c0.5,0.3,0.8,1.4,0.8,1.6c0.1,0.1,0.7,1,0.7,1c0.5-0.1,0.5,0,0.5,0c-0.1,0.4-0.6,0.9-0.7,1c-0.1,0.1-0.3,0.4-0.4,0.6
	C12.8,11.9,12.8,12.6,12.8,12.6z M13.8,13.1c-0.2,0.3-0.4,0.5-0.4,0.5c0,0,0,0-0.1,0s-0.1-0.3-0.1-0.3s0.1-0.2,0.2-0.3
	c0.1-0.1,0-0.3,0.1-0.3s0.3-0.2,0.4-0.2S14,12,14,12C14,12.1,14,12.8,13.8,13.1z M15.8,8.5c0,0-0.6-0.6-0.8-0.7l-0.2,0
	c0,0-0.5-0.3-0.6-0.4c-0.1-0.1-0.2-0.1-0.1,0c0,0.1,0.2,0.3,0.2,0.3S14.3,8,14.4,8c0.1,0,0.3,0,0.3,0S15,8.4,15,8.5s-1,0.7-1,0.7
	s-0.1,0-0.2,0c-0.1,0-0.3-0.1-0.3-0.2c0-0.1,0-0.2,0-0.2c0-0.1-1.2-1.6-1.2-1.6s-0.2,0-0.2,0l-0.1,0V6.5c0,0,0,0.2-0.1,0.2
	c-0.1,0-0.4-0.5-0.4-0.7c0-0.2,0.5-0.4,0.5-0.4s0.2,0,0.3,0c0.1,0,0.6,0.1,0.6,0.1c0.1,0,0-0.2,0-0.2s-0.2-0.2-0.5-0.2
	c0,0,0,0,0.2-0.2c0,0-0.1-0.1-0.3,0c-0.2,0-0.6,0.2-0.7,0.4c0,0,0,0.4,0,0.4S11.4,6,11.4,6H11c0,0-0.2,0,0,0.2c0,0-0.3-0.2-0.3-0.6
	c0,0-0.6-0.5-0.8-0.5L9.7,5.3c0,0,0.1,0.2,0.2,0.3c0,0,0,0,0,0c0.1,0,0.1,0,0.1,0v0.2c0,0-0.1-0.1-0.1-0.2c-0.1,0-0.3-0.3-0.4-0.3
	c-0.1,0-0.2,0-0.2,0S8.9,5.4,8.8,5.5c0,0,0,0-0.1,0S8.3,6.2,8.1,6.2C8,6.2,8,6.3,7.7,6.2C7.4,6.2,7.3,6.1,7.3,6.1S7.1,5.6,7.4,5.3
	c0,0,0.8-0.1,0.9-0.4c0,0-0.2-0.3,0-0.4C8.4,4.5,9,4.3,9,4.2c0.1-0.1,0.1-0.4,0.5-0.4c0,0,0.3,0.4,0.5,0.4c0.2,0,0.4-0.2,0.5-0.4
	c0-0.2-0.2-0.5-0.2-0.5s-0.2,0.4-0.3,0.5c0,0-0.3,0.1-0.4-0.1C9.5,3.5,9.5,3.4,9.5,3.4s-0.2,0-0.4,0.1c0,0,0-0.5,0.3-0.5h0.2
	c0,0,0.5-0.3,0.8-0.3s0.4,0,0.4,0l1.1-0.1c0,0,0.2,0.1,0.3,0.2s0.3,0.3,0.3,0.3s0.2,0,0.3-0.2c0,0,3.4,1.9,3.4,6.4l0,0
	C16.1,9.4,15.8,8.6,15.8,8.5z"/>
</svg>
