<?xml version="1.0" encoding="utf-8"?>
<!-- Generator: Adobe Illustrator 19.1.0, SVG Export Plug-In . SVG Version: 6.00 Build 0)  -->
<svg version="1.1" id="Icon" xmlns="http://www.w3.org/2000/svg" xmlns:xlink="http://www.w3.org/1999/xlink" x="0px" y="0px"
	 viewBox="0 0 24 24" style="enable-background:new 0 0 24 24;" xml:space="preserve">
<style type="text/css">
	.st0{fill:#464646;}
</style>
<path class="st0" d="M12,1C5.9,1,1,5.9,1,12s4.9,11,11,11s11-4.9,11-11S18.1,1,12,1z M10.2,4.4c0-0.1,0.2-0.2,0.3-0.2
	s0.1,0.1,0.1,0.3s0.5,0.5,0.5,0.6S11,5.3,10.8,5.4s-0.3,0-0.3,0s-0.2,0-0.3,0S10.2,4.4,10.2,4.4z M9.8,4.9c0.1,0,0.3,0.1,0.3,0.2
	S10,5.3,9.9,5.3S9.8,5.5,9.7,5.5C9.6,5.4,9.6,5.4,9.6,5.3S9.8,4.9,9.8,4.9z M4.3,6.3c0.2-0.1,0.1,0.1,0.1,0.1
	C4.2,6.5,4.3,6.7,4.3,6.7c0.4,0.6,0.1,0.9,0.1,0.9c-1.1,0.7-1,0.9-1,0.9l0.2-0.1l0.1,0.1c0,0-0.9,1.3-1,1.6s-0.3,1.7-0.3,1.7
	C2.3,8.8,4.3,6.3,4.3,6.3z M6.1,18.9c0,0.1-0.6,0.2-0.6,0.2c-2.3-2-2.9-5-2.9-5s0.6,0.5,1.2,0.8s0.7,1,0.9,1.2s0.8,0.4,0.8,0.4
	s0.1,0.1,0.4,0.2s0.5,0.3,0.5,0.3S6,18.3,6,18.3S6.1,18.8,6.1,18.9z M7.1,4.4c0,0-0.5,0.4-0.6,0.6L6,5.3L5.8,5.1l-0.3,0
	c0,0,0.7-1.1,3.1-2c0,0-0.2,0.3-0.3,0.3c-0.1,0-0.2,0-0.5,0.3C7.4,3.9,7.1,4.4,7.1,4.4z M18.5,17.6c-0.3,0.4-0.6,0.6-0.6,0.6
	c0,0-0.1,0-0.1,0c-0.1,0-0.1-0.4-0.1-0.4s0.1-0.3,0.2-0.5c0.1-0.2,0-0.3,0.1-0.4c0.1-0.1,0.4-0.3,0.5-0.3s0.3-0.5,0.3-0.5
	C18.8,16.1,18.7,17.1,18.5,17.6z M18.9,13.1c-0.1,0.5-0.8,1.2-1,1.4s-0.4,0.6-0.6,0.8c-0.1,0.3-0.1,1.2-0.1,1.2
	c0,0.2-0.6,0.6-0.8,0.8c-0.2,0.2-0.5,0.4-0.5,0.4v0.6c0,0.3-0.4,0.5-0.5,0.7c-0.1,0.2-0.3,0.4-0.5,0.5s-1.1,0.2-1.1,0.2s0-0.5,0-0.8
	c0-0.2-0.3-0.6-0.3-0.6l-0.1-0.3c0,0-0.4-0.4-0.4-0.7c0-0.3,0.3-0.8,0.3-0.8s0-0.1,0-0.2c0-0.1-0.2-0.6-0.2-0.6s0-0.2,0-0.3
	c0-0.1-0.4-0.4-0.4-0.4c0,0,0.1-0.2,0.1-0.4c0-0.2,0.1-0.3,0.1-0.3s0-0.3,0-0.4c0-0.2-0.4,0-0.6,0c-0.2,0.1-0.5,0-0.6,0
	c-0.1,0-0.2-0.4-0.2-0.4c-0.1-0.1-0.2,0-0.2,0s-0.5,0.3-0.6,0.3c-0.1,0-0.3,0.1-0.4,0.1c-0.1,0-0.2,0.1-0.2,0.1H9.9
	c0,0-0.8-0.5-1.1-0.8C8.4,12.8,8,12.1,8,12.1s0-1,0-1.2s0.3-0.5,0.6-0.8s1-0.7,1-0.7s0-0.1,0-0.2s0.6-0.7,0.6-0.7l0.6,0
	c0,0,0.9-0.4,1.1-0.4s0.3,0.1,0.5,0.1c0.2,0,0.4-0.1,0.4-0.1s0.2,0.7,0.2,0.8c0.1,0.1,0.6,0.2,1,0.3s0.5-0.2,0.6-0.2
	c0.2,0,0.1,0.1,0.3,0.2c0.2,0.1,0.5,0,1.2,0.4c0.7,0.4,1.1,1.9,1.1,2.1s1,1.3,1,1.3C19,12.9,18.9,13.1,18.9,13.1z M21.1,11.4
	c0,0-0.7-0.8-1.1-0.9l-0.3,0c0,0-0.7-0.4-0.8-0.5c-0.1-0.1-0.2-0.1-0.2,0c0,0.1,0.3,0.5,0.3,0.5c0,0,0.1,0.3,0.2,0.3
	c0.2,0,0.4,0,0.4,0s0.4,0.5,0.4,0.6c0,0.1-1.4,1-1.4,1s-0.2,0.1-0.3,0.1c-0.1,0-0.4-0.1-0.3-0.3c0-0.2,0-0.2,0-0.3
	c-0.1-0.1-1.6-2.2-1.6-2.2s0.2,0,0.2,0l0.4,0V8.6c0,0-0.5,0.3-0.7,0.3S15.6,8.2,15.6,8s0.6-0.5,0.6-0.5s0.3,0,0.4,0
	c0.1,0,0.7,0.2,0.8,0.1c0.1,0,0-0.3,0-0.3S17.2,7,16.7,6.9c0,0,0-0.1,0.3-0.3c0,0-0.2-0.1-0.4-0.1c-0.2,0-0.8,0.3-1,0.5
	c0,0,0,0.6,0,0.6c0,0-0.3,0.3-0.3,0.3h-0.6c0,0-0.2-0.1,0,0.2c0,0-0.4-0.3-0.4-0.8c0,0-0.7-0.6-1.1-0.7L13.2,7c0,0,0.8,0.6,0.8,0.7
	S14,8,14,8h-1V7.5c0,0,0.1,0,0,0c-0.1,0-0.3-0.5-0.5-0.5c-0.2,0-0.2,0-0.2,0s-0.5,0.1-0.6,0.3c0,0-0.1,0-0.1,0
	c-0.1,0-0.6,0.8-0.8,0.9c-0.2,0-0.1,0.1-0.6,0C9.8,8.1,9.7,8.1,9.7,8.1S9.5,7.4,9.8,7c0,0,1-0.1,1.2-0.5c0,0-0.3-0.4,0-0.5
	c0.3-0.1,1-0.4,1.1-0.5s0.1-0.5,0.7-0.6c0,0,0.5,0.5,0.7,0.6c0.2,0,0.6-0.2,0.6-0.5s-0.2-0.6-0.2-0.6S13.5,5,13.5,5
	s-0.4,0.1-0.6-0.2s-0.2-0.4-0.2-0.4s-0.2,0-0.6,0.1c0,0,0-0.6,0.4-0.6h0.3c0,0,0.6-0.5,1.1-0.5s0.5,0,0.5,0l1.4-0.1
	c0,0,0.3,0.1,0.4,0.3S16.7,4,16.7,4s0.3,0,0.4-0.2c0,0,4.6,2.5,4.6,8.7l-0.1,0C21.6,12.5,21.2,11.4,21.1,11.4z"/>
</svg>
