<?xml version="1.0" encoding="utf-8"?>
<!-- Generator: Adobe Illustrator 19.1.0, SVG Export Plug-In . SVG Version: 6.00 Build 0)  -->
<svg version="1.1" id="Icon" xmlns="http://www.w3.org/2000/svg" xmlns:xlink="http://www.w3.org/1999/xlink" x="0px" y="0px"
	 viewBox="0 0 20 20" style="enable-background:new 0 0 20 20;" xml:space="preserve">
<style type="text/css">
	.st0{fill:#464646;}
</style>
<g>
	<path class="st0" d="M10.9,5.6l0.2,0.2c0,0,0.5,0.3,0.7,0.5c0-0.1,0-0.1-0.1-0.2C11.8,6.2,11.2,5.6,10.9,5.6z"/>
	<path class="st0" d="M9.9,1C5,1,1,5.1,1,10.1c0,5,4.1,9,9.1,8.9s9-4.1,8.9-9.1C19,5,14.9,1,9.9,1z M8.5,4c0-0.1,0.2-0.1,0.3-0.1
		c0.1,0,0.1,0.1,0.1,0.2c0,0.1,0.4,0.4,0.4,0.4c0,0-0.1,0.2-0.3,0.2c-0.2,0.1-0.2,0-0.2,0s-0.2,0-0.2,0C8.5,4.8,8.5,4,8.5,4z
		 M8.2,4.4c0.1,0,0.2,0.1,0.2,0.1S8.3,4.7,8.3,4.7c0,0-0.1,0.2-0.2,0.1C8.1,4.7,8.1,4.7,8.1,4.7S8.2,4.4,8.2,4.4z M3.5,5.3
		C3.7,5.2,3.6,5.3,3.5,5.3c0,0.2,0,0.3,0,0.3c0.3,0.5,0.1,0.7,0.1,0.7C2.7,7,2.8,7.1,2.8,7.1L3,7L3.1,7c0,0-0.7,1.1-0.8,1.4
		C2.2,8.6,2,9.8,2,9.8C2,7.4,3.5,5.3,3.5,5.3z M5.1,15.8c0,0.1-0.5,0.2-0.5,0.2c-1.9-1.7-2.4-4.1-2.4-4.1s0.5,0.4,1,0.7
		c0.5,0.3,0.6,0.8,0.8,1s0.6,0.3,0.6,0.3s0.1,0.1,0.3,0.2s0.4,0.2,0.4,0.3c0,0.1-0.3,1-0.3,1S5.2,15.7,5.1,15.8z M6.4,3.1
		C6.1,3.3,5.9,3.7,5.9,3.7S5.4,4.1,5.4,4.3L5,4.4L4.8,4.3l-0.3,0c0,0,0.6-0.9,2.6-1.7c0,0-0.1,0.3-0.2,0.3S6.7,2.9,6.4,3.1z
		 M15.4,14.6c-0.2,0.3-0.5,0.5-0.5,0.5c0,0-0.1,0-0.1,0c-0.1,0-0.1-0.4-0.1-0.4s0.1-0.2,0.2-0.4c0.1-0.2,0-0.3,0.1-0.4
		c0-0.1,0.3-0.2,0.4-0.3c0.1,0,0.2-0.4,0.2-0.4C15.6,13.4,15.6,14.3,15.4,14.6z M15.7,10.9c-0.1,0.4-0.7,1-0.8,1.2
		c-0.1,0.1-0.3,0.5-0.4,0.7c-0.1,0.2,0,1,0,1c0,0.2-0.4,0.5-0.6,0.7c-0.2,0.2-0.2,0.3-0.2,0.3l0,0.5c-0.4,0.3-0.5,0.4-0.6,0.6
		c-0.1,0.2-0.4,0.3-0.6,0.4c-0.2,0.1-1,0.1-1,0.1s0-0.4,0-0.6c0-0.2-0.2-0.5-0.2-0.5L11.2,15c0,0-0.3-0.3-0.3-0.6
		c0-0.3,0.2-0.7,0.2-0.7s0-0.1,0-0.2S11,13.1,11,13.1s0-0.2,0-0.3c0-0.1-0.4-0.3-0.4-0.3s0-0.2,0-0.3c0-0.1-0.1-0.2-0.1-0.2
		s0-0.2,0-0.4c0-0.1-0.2,0-0.3,0s-0.2,0-0.3,0c-0.1,0-0.1-0.3-0.1-0.3c-0.1-0.1-0.2,0-0.2,0s-0.4,0.2-0.5,0.3s-0.3,0.1-0.4,0.1
		c-0.1,0-0.2,0.1-0.2,0.1l-0.2,0c0,0-0.5-0.4-0.8-0.7c-0.3-0.3-0.5-0.9-0.5-0.9s0-0.8,0-1S7,8.7,7.3,8.5C7.5,8.2,8,7.9,8,7.9
		s0-0.1,0-0.2c0-0.1,0.5-0.6,0.5-0.6l0.5,0c0,0,0.8-0.3,0.9-0.3C10,6.9,10.1,7,10.3,7c0.2,0,0.3-0.1,0.3-0.1s0.1,0.6,0.2,0.7
		c0.1,0.1,0.5,0.2,0.9,0.2c0.4,0,0.4-0.1,0.5-0.2c0.1,0,0.1,0.1,0.3,0.1c0.2,0,0.4,0,1,0.3c0.6,0.3,0.9,1.6,1,1.7
		c0.1,0.1,0.8,1.1,0.8,1.1C15.8,10.8,15.7,10.9,15.7,10.9z M17.6,9.4c0,0-0.6-0.6-1-0.7l-0.3,0c0,0-0.6-0.3-0.6-0.4
		c-0.1-0.1-0.2-0.1-0.2,0s0.3,0.4,0.3,0.4c0,0,0.1,0.2,0.2,0.2c0.1,0,0.3,0,0.3,0s0.3,0.4,0.3,0.5c0,0.1-1.1,0.8-1.1,0.8
		s-0.1,0-0.2,0S15,10.2,15,10c0-0.2,0-0.2,0-0.3c0-0.1-1.3-1.8-1.3-1.8c0,0,0,0,0,0l0.2,0l0-0.7c0,0-0.3,0.2-0.4,0.2
		c-0.1,0-0.6-0.5-0.6-0.7c0-0.2,0.5-0.4,0.5-0.4s0.2,0,0.3,0c0.1,0,0.6,0.1,0.7,0.1c0.1,0,0-0.3,0-0.3s-0.2-0.2-0.6-0.2
		c0,0,0-0.1,0.2-0.3c0,0-0.1-0.1-0.3,0c-0.2,0-0.7,0.3-0.8,0.4c0,0,0,0.4,0,0.4c0,0-0.3,0.1-0.3,0.1l-0.5,0c0,0-0.2,0.1,0,0.3
		c0,0-0.1-0.1-0.2-0.2l-0.6,0l-0.1-0.2c0,0-0.1,0-0.2,0c-0.1,0-0.3-0.4-0.5-0.4s-0.3,0-0.3,0S9.9,6,9.8,6.1c0,0-0.1,0-0.1,0
		S9.2,6.8,9,6.9c-0.2,0-0.1,0.1-0.5,0S8.1,6.8,8.1,6.8S7.9,6.2,8.2,5.9c0,0,0.9-0.1,1-0.4c0,0-0.2-0.3,0-0.4S9.9,4.7,10,4.6
		s0.1-0.4,0.6-0.5c0,0,0.4,0.4,0.6,0.5s0.5-0.2,0.5-0.4c0-0.2-0.2-0.5-0.2-0.5s-0.3,0.5-0.3,0.5S10.9,4.3,10.7,4
		c-0.2-0.2-0.2-0.3-0.2-0.3s-0.2-0.1-0.5,0c0,0,0-0.4,0.3-0.6l0.3,0c0,0,0.5-0.3,0.9-0.3S12,2.9,12,2.9l1.2-0.1c0,0,0.3,0.1,0.4,0.3
		c0.1,0.2,0.3,0.3,0.3,0.3s0.2,0,0.4-0.2c0,0,3.8,2.1,3.8,7.2l-0.1,0C18,10.4,17.6,9.5,17.6,9.4z"/>
</g>
</svg>
