<?xml version="1.0" encoding="utf-8"?>
<!-- Generator: Adobe Illustrator 19.1.0, SVG Export Plug-In . SVG Version: 6.00 Build 0)  -->
<svg version="1.1" id="Icon" xmlns="http://www.w3.org/2000/svg" xmlns:xlink="http://www.w3.org/1999/xlink" x="0px" y="0px"
	 viewBox="0 0 24 24" style="enable-background:new 0 0 24 24;" xml:space="preserve">
<style type="text/css">
	.st0{fill:#464646;}
</style>
<path class="st0" d="M22,19.9l-6.3-6.3C16.5,12.4,17,11,17,9.5C17,5.4,13.6,2,9.5,2S2,5.4,2,9.5S5.4,17,9.5,17
	c1.5,0,2.9-0.5,4.1-1.2l6.3,6.3L22,19.9z M4.8,9.5c0-2.6,2.1-4.7,4.7-4.7c2.6,0,4.7,2.1,4.7,4.7s-2.1,4.7-4.7,4.7
	C6.9,14.2,4.8,12.1,4.8,9.5z"/>
</svg>
