<?xml version="1.0" encoding="utf-8"?>
<!-- Generator: Adobe Illustrator 19.1.0, SVG Export Plug-In . SVG Version: 6.00 Build 0)  -->
<svg version="1.1" id="Icon" xmlns="http://www.w3.org/2000/svg" xmlns:xlink="http://www.w3.org/1999/xlink" x="0px" y="0px"
	 viewBox="0 0 18 18" style="enable-background:new 0 0 18 18;" xml:space="preserve">
<style type="text/css">
	.st0{fill:#464646;}
</style>
<path class="st0" d="M17,10V8l-2.7-0.5c-0.1-0.4-0.3-0.8-0.5-1.1l1.5-2.3l-1.4-1.4l-2.3,1.5c-0.3-0.2-0.7-0.3-1.1-0.5L10,1H8
	L7.5,3.7C7.1,3.8,6.7,4,6.4,4.2L4.1,2.6L2.6,4.1l1.5,2.3C4,6.7,3.8,7.1,3.7,7.5L1,8v2l2.7,0.5c0.1,0.4,0.3,0.8,0.5,1.1l-1.5,2.3
	l1.4,1.4l2.3-1.5c0.3,0.2,0.7,0.3,1.1,0.5L8,17h2l0.5-2.7c0.4-0.1,0.8-0.3,1.1-0.5l2.3,1.5l1.4-1.4l-1.5-2.3
	c0.2-0.3,0.3-0.7,0.5-1.1L17,10z M12,9c0,1.7-1.3,3-3,3s-3-1.3-3-3c0-1.7,1.3-3,3-3S12,7.3,12,9z"/>
</svg>
