<?xml version="1.0" encoding="utf-8"?>
<!-- Generator: Adobe Illustrator 19.1.0, SVG Export Plug-In . SVG Version: 6.00 Build 0)  -->
<svg version="1.1" id="Icon" xmlns="http://www.w3.org/2000/svg" xmlns:xlink="http://www.w3.org/1999/xlink" x="0px" y="0px"
	 viewBox="0 0 24 24" style="enable-background:new 0 0 24 24;" xml:space="preserve">
<style type="text/css">
	.st0{fill:#464646;}
</style>
<path class="st0" d="M23,13.4v-2.8l-3.7-0.7c-0.2-0.5-0.4-1-0.6-1.5l2.1-3.2l-1.9-1.9l-3.2,2.1c-0.5-0.3-1-0.5-1.5-0.6L13.4,1h-2.8
	L9.9,4.7c-0.5,0.2-1,0.4-1.5,0.6L5.2,3.2L3.2,5.2l2.1,3.2c-0.3,0.5-0.5,1-0.6,1.5L1,10.6v2.8l3.7,0.7c0.2,0.5,0.4,1,0.6,1.5
	l-2.1,3.2l1.9,1.9l3.2-2.1c0.5,0.3,1,0.5,1.5,0.6l0.7,3.7h2.8l0.7-3.7c0.5-0.2,1-0.4,1.5-0.6l3.2,2.1l1.9-1.9l-2.1-3.2
	c0.3-0.5,0.5-1,0.6-1.5L23,13.4z M16,12c0,2.2-1.8,4-4,4s-4-1.8-4-4c0-2.2,1.8-4,4-4S16,9.8,16,12z"/>
</svg>
