<?xml version="1.0" encoding="utf-8"?>
<!-- Generator: Adobe Illustrator 19.1.0, SVG Export Plug-In . SVG Version: 6.00 Build 0)  -->
<svg version="1.1" id="Icon" xmlns="http://www.w3.org/2000/svg" xmlns:xlink="http://www.w3.org/1999/xlink" x="0px" y="0px"
	 viewBox="0 0 20 20" style="enable-background:new 0 0 20 20;" xml:space="preserve">
<style type="text/css">
	.st0{fill:#464646;}
</style>
<path class="st0" d="M19,11.1V8.9l-3.1-0.6c-0.1-0.4-0.3-0.8-0.5-1.2l1.7-2.6l-1.6-1.6L13,4.6c-0.4-0.2-0.8-0.4-1.2-0.5L11.1,1H8.9
	L8.3,4.1C7.8,4.2,7.4,4.4,7,4.6L4.4,2.8L2.8,4.4L4.6,7C4.4,7.4,4.2,7.8,4.1,8.3L1,8.9v2.2l3.1,0.6c0.1,0.4,0.3,0.8,0.5,1.2l-1.7,2.6
	l1.6,1.6L7,15.4c0.4,0.2,0.8,0.4,1.2,0.5L8.9,19h2.2l0.6-3.1c0.4-0.1,0.8-0.3,1.2-0.5l2.6,1.7l1.6-1.6L15.4,13
	c0.2-0.4,0.4-0.8,0.5-1.2L19,11.1z M13.5,10c0,1.9-1.6,3.5-3.5,3.5S6.5,11.9,6.5,10c0-1.9,1.6-3.5,3.5-3.5S13.5,8.1,13.5,10z"/>
</svg>
