<?xml version="1.0" encoding="utf-8"?>
<!-- Generator: Adobe Illustrator 19.1.0, SVG Export Plug-In . SVG Version: 6.00 Build 0)  -->
<svg version="1.1" id="Icon" xmlns="http://www.w3.org/2000/svg" xmlns:xlink="http://www.w3.org/1999/xlink" x="0px" y="0px"
	 viewBox="0 0 20 20" style="enable-background:new 0 0 20 20;" xml:space="preserve">
<style type="text/css">
	.st0{fill:#464646;}
</style>
<polygon class="st0" points="19,6 19,2 14,2 14,4 9,4 9,9 6,9 6,8 1,8 1,12 6,12 6,10 9,10 9,16 14,16 14,18 19,18 19,14 14,14 
	14,15 10,15 10,10 14,10 14,12 19,12 19,8 14,8 14,9 10,9 10,5 14,5 14,6 "/>
</svg>
