<?xml version="1.0" encoding="utf-8"?>
<!-- Generator: Adobe Illustrator 19.1.0, SVG Export Plug-In . SVG Version: 6.00 Build 0)  -->
<svg version="1.1" id="Icon" xmlns="http://www.w3.org/2000/svg" xmlns:xlink="http://www.w3.org/1999/xlink" x="0px" y="0px"
	 viewBox="0 0 24 24" style="enable-background:new 0 0 24 24;" xml:space="preserve">
<style type="text/css">
	.st0{fill:#464646;}
</style>
<polygon class="st0" points="23,8 23,3 16,3 16,5 11,5 11,12 8,12 8,10 1,10 1,15 8,15 8,13 11,13 11,20 16,20 16,22 23,22 23,17 
	16,17 16,19 12,19 12,13 16,13 16,15 23,15 23,10 16,10 16,12 12,12 12,6 16,6 16,8 "/>
</svg>
