<svg id="Layer_1" data-name="Layer 1" xmlns="http://www.w3.org/2000/svg" xmlns:xlink="http://www.w3.org/1999/xlink" width="64" height="64" viewBox="0 0 64 64"><defs><clipPath id="clip-path"><rect width="64" height="64" style="fill:none"/></clipPath><clipPath id="clip-path-4"><rect x="31" width="2" height="18" style="fill:none"/></clipPath><clipPath id="clip-path-5"><rect x="31" y="46" width="2" height="18" style="fill:none"/></clipPath><clipPath id="clip-path-7"><rect x="18" y="18" width="28" height="28" style="fill:none"/></clipPath></defs><title>cb</title><g style="clip-path:url(#clip-path)"><g style="clip-path:url(#clip-path)"><g style="clip-path:url(#clip-path)"><g style="opacity:0.3300020098686218"><g style="clip-path:url(#clip-path-4)"><line x1="32" y1="18" x2="32" style="fill:none;stroke:#464646;stroke-miterlimit:10;stroke-width:2px"/></g></g><g style="opacity:0.3300020098686218"><g style="clip-path:url(#clip-path-5)"><line x1="32" y1="64" x2="32" y2="46" style="fill:none;stroke:#464646;stroke-miterlimit:10;stroke-width:2px"/></g></g></g><rect x="18" y="18" width="28" height="28" style="fill:#fff"/><g style="clip-path:url(#clip-path)"><g style="opacity:0.3300020098686218"><g style="clip-path:url(#clip-path-7)"><rect x="18.5" y="18.5" width="27" height="27" style="fill:#fff"/><path d="M45,45H19V19H45Zm1-27H18V46H46Z" style="fill:#464646"/></g></g></g><g style="clip-path:url(#clip-path)"><path d="M56,1a7,7,0,1,0,7,7,7,7,0,0,0-7-7" style="fill:#464646"/><rect x="55.13" y="10.63" width="1.75" height="1.75" style="fill:#f0f0f0"/><path d="M56.88,8.66V9.75H55.13V7.56S58,7.67,58,6.14c0-.66-.83-1.05-1.8-1.06-.43,0-1.83.06-1.91,1.17H52.59c.12-1.55,1.3-2.63,3.57-2.63,2.91,0,3.35,1.85,3.35,2.41,0,2.46-2.62,2.63-2.62,2.63" style="fill:#f0f0f0"/></g></g></g></svg>