<svg xmlns="http://www.w3.org/2000/svg" width="64" height="64" viewBox="0 0 64 64"><defs><style>.cls-1,.cls-3{fill:#f03040;}.cls-1{opacity:0.2;}.cls-2{fill:none;stroke:#f03040;stroke-miterlimit:10;stroke-width:2px;}</style></defs><title>abb-pps-generator-error-fixed</title><g id="error"><circle class="cls-1" cx="32" cy="32" r="20"/><circle class="cls-2" cx="32" cy="32" r="20"/><path class="cls-3" d="M32.34,25.27a6.72,6.72,0,0,1,2,.29A5.23,5.23,0,0,1,36,26.4a4.58,4.58,0,0,1,1.19,1.36,4.8,4.8,0,0,1,.59,1.85h-2.7a2.66,2.66,0,0,0-.38-.87,2.3,2.3,0,0,0-.61-.62,2.69,2.69,0,0,0-.8-.36,3.56,3.56,0,0,0-1-.12,3.3,3.3,0,0,0-1.57.35,3,3,0,0,0-1.08,1,4.27,4.27,0,0,0-.62,1.41,6.9,6.9,0,0,0-.2,1.7A6.57,6.57,0,0,0,29,33.62a4.2,4.2,0,0,0,.6,1.38,3.14,3.14,0,0,0,1.08,1,3.29,3.29,0,0,0,1.63.37,3.14,3.14,0,0,0,2.14-.69,3,3,0,0,0,.91-2.08H32.56V31.47H38v7h-1.8L35.88,37h0a4.31,4.31,0,0,1-3.6,1.76,6.29,6.29,0,0,1-2.53-.5,5.75,5.75,0,0,1-2-1.39,6.37,6.37,0,0,1-1.28-2.12A7.6,7.6,0,0,1,26,32.05a8.09,8.09,0,0,1,.42-2.63,6.39,6.39,0,0,1,1.23-2.16,5.75,5.75,0,0,1,2-1.46A6.4,6.4,0,0,1,32.34,25.27Z"/></g></svg>