<?xml version="1.0" encoding="utf-8"?>
<!-- Generator: Adobe Illustrator 18.0.0, SVG Export Plug-In . SVG Version: 6.00 Build 0)  -->
<!DOCTYPE svg PUBLIC "-//W3C//DTD SVG 1.1//EN" "http://www.w3.org/Graphics/SVG/1.1/DTD/svg11.dtd">
<svg version="1.1" id="Layer_1" xmlns="http://www.w3.org/2000/svg" xmlns:xlink="http://www.w3.org/1999/xlink" x="0px" y="0px"
	 viewBox="0 0 383 243" enable-background="new 0 0 383 243" xml:space="preserve">
<path fill="#010101" d="M154.6,13.4c0.4-4.3,4.4-6.6,8.4-6.8c13.4,0,26.8,0,40.1,0c4-0.1,9,1.6,9.4,6.2c0.2,7.2,0.1,14.5,0.1,21.7
	c4.7,1.2,9.6,0.6,14.4,0.7c16.2,0.1,32.3-0.1,48.5,0.1c0.3,21.2,0,42.4,0.1,63.7c-0.3,1.8,2,2.4,3.4,2.3c25,0,50.1,0,75.1,0
	c1.8,0,3.5,0,5.3,0.3c2,1.3,3.3,3.8,3.1,6.2c0,12.1,0,24.1,0,36.2c0.1,1.4-0.2,3,0.6,4.3c6.3,0.2,12.5,0,18.7,0c0,2.8,0,5.5,0,8.3
	c-7.4,0.2-14.9-0.5-22.2,0.4c0,14.8,0,29.6,0,44.4c-5.3,1-10.6,0.9-16,0.9c0,6.3,0.1,12.5,0.1,18.8c0.1,2.9-1.2,6.4-4.2,7.4
	c-2.6,1.3-5.5,0.9-8.3,0.9c-12.4,0-24.8,0.1-37.1,0c-3.5,0.1-7.7-1.5-8.3-5.3c-0.5-7.2-0.1-14.5-0.1-21.7
	c-10.1-0.2-20.1-0.1-30.1-0.1c0,5.6,0,11.2,0,16.8c0.1,3-0.5,6.3-2.7,8.4c-2.2,1.6-5,2-7.6,1.9c-13.7-0.1-27.4,0.1-41.1-0.1
	c-3.9-0.2-7-3.4-7.3-7.3c-0.2-6.6,0-13.2-0.1-19.8c-10-0.1-20,0-30.1,0c0.1,6.3,0.1,12.5,0.1,18.8c0,2.6-0.5,6-3.3,7
	c-3.2,1.7-6.9,1.2-10.3,1.3c-12,0-24,0-36.1,0c-3.7,0.1-7.8-1.7-8.3-5.7c-0.4-7.1,0-14.2-0.2-21.3c-10-0.1-20.1-0.1-30.1,0
	c-0.1,6.9,0.2,13.8-0.1,20.7c-0.6,4-4.3,6.4-8.1,6.3c-13.7,0.1-27.4,0-41.2,0.1c-3.8,0.2-8.7-1.8-8.6-6.3c-0.2-6.9-0.1-13.8,0-20.7
	c-6.3-0.3-12.5,0.1-18.8-0.3c0-0.7-0.1-2.1-0.2-2.8c6.3-0.2,12.8,0.8,18.9-0.9c0-7.2-0.2-14.4,0.1-21.6c-0.1-2.9,2.6-5.7,5.5-5.5
	c14.4-0.3,28.8,0,43.1-0.1c2.4,0.1,5.1-0.3,7,1.6c1.5,1.6,2.1,3.9,2.3,6c0.2,6.8-0.1,13.7,0.1,20.5c8.2,0,16.4,0,24.6,0
	c1.8,0,3.6-0.3,5.4-0.7c0-6.6,0-13.2,0-19.8c-0.3-3.6,2.5-7.9,6.5-7.5c14.7-0.2,29.5,0,44.2-0.1c3.6-0.5,7.3,2.4,7.4,6
	c0.3,6.9-0.2,13.8,0.2,20.7c0.8,1.1,1.8,1.6,3.2,1.3c8.9,0,17.7,0,26.6,0c0.2-6.8,0-13.6,0.1-20.5c0.3-3.4,2.2-7.6,6.2-7.5
	c15.1-0.2,30.1-0.1,45.2-0.1c2.8-0.3,5.9,1.5,6.5,4.3c0.2,7.9,0,15.9,0.1,23.8c10.3,0.1,20.5,0.1,30.8,0c0.2-6.2,0-12.4,0.1-18.6
	c0.1-2.8,0.3-6,2.5-7.9c2.3-1.6,5.2-1.5,7.9-1.6c12.4,0.1,24.8,0.1,37.2,0c2.8,0.1,6.2-0.1,8.3,2.2c1.7,2.4,1.8,5.5,1.9,8.3
	c0,5.9-0.1,11.7,0.1,17.6c4.6,0.1,9.3,0.1,13.9-0.1c0-11.5,0-23,0-34.5c0.1-3-0.6-6-1.8-8.7c-1.5-3.2-1.2-6.8-1.3-10.2
	c0.1-9.4,0-18.7,0.1-28.1c-0.1-2.7,0.2-5.6-1.1-8.1c-5.6-1.5-11.5-0.9-17.3-1c-35.3,0.1-70.7,0-106,0c-5.8,0-11.7-0.5-17.3,1
	c-1.1,6.7,1,13.8-1.3,20.4c-1.4,3.7-6,3.3-9.2,3.5c-14.5-0.2-28.9,0.2-43.4-0.2c-2.4-1.1-4.2-3.6-4.1-6.3c-0.2-5.3,0.1-10.7-0.1-16
	c0.3-2.1-2.2-1.5-3.4-1.6c-49.9,0-99.8,0-149.6,0c0-2.7,0-5.5-0.1-8.2c28.3,0,56.5,0,84.7,0c1.8,0,3.6-0.1,5.4-0.6
	c0.1-21.8-0.2-43.6,0.2-65.3c16.8-0.3,33.6,0,50.4-0.1c4.2-0.1,8.4,0.4,12.5-0.6C154.6,27.6,154.4,20.5,154.6,13.4z"/>
<path fill="#97969B" d="M162.5,9.8c13.2-0.5,26.4,0,39.6-0.2c3.3-0.3,8,1.5,7.6,5.5c0.2,12.3,0,24.6,0.1,37c0,2.4,0.1,4.9-0.4,7.3
	c-1.1,2.3-3.8,3.2-6.2,3.1c-12.7,0.1-25.5,0-38.2,0c-2.7,0.1-5.9-0.6-7.1-3.2c-0.6-2-0.4-4.1-0.4-6.2c0.1-12.7-0.1-25.3,0.1-38
	C157.3,12.2,160.1,10.4,162.5,9.8z"/>
<path fill="#010101" d="M176.3,19.8c5.6,3.6,9.5,9.2,14.5,13.4c4,3.5,9.7,1.5,14.5,2.7c-4.4,1.1-8.9,1.8-13.5,1.6
	c-1.7,0-2.5-1.7-3.7-2.6c-3.2-3.8-7.1-7-10.4-10.7C176.7,23,176.6,21.3,176.3,19.8z"/>
<path fill="#010101" d="M161.4,35.5c4.5,0.1,8.9-0.4,13.3-1.2c0,1.1,0.1,2.3,0.1,3.4c-4.4-0.3-8.8-0.3-13.2-0.3
	C161.5,36.9,161.4,35.9,161.4,35.5z"/>
<path fill="#DEDEDE" d="M94.4,38.3c1.8-0.3,3.7-0.7,5.6-0.7c16,0,32.1,0,48.1,0c2.2,0,4.3,0.5,6.5,0.9c-0.1,6.9-0.2,13.7,0,20.6
	c0.4,4,4.7,6.4,8.4,6.3c12,0,24,0,36.1,0c3.4,0,7,0.4,10.1-1.2c2.5-0.8,3.4-3.7,3.4-6.1c0.1-6.5,0-13,0-19.5c2.4-0.5,4.9-1,7.4-0.9
	c17.5,0,35.1,0,52.6,0c0.2,21.2,0.2,42.5,0,63.7c-18.2-0.1-36.4,0-54.7,0c-1.8,0-3.6-0.5-5.3-0.8c-0.1-6.5,0.3-13.1-0.2-19.6
	c-0.6-3.9-4.8-5.4-8.3-5.3c-13.7,0-27.4,0-41.2,0c-3.7,0-8.1,2.2-8.3,6.3c-0.3,6.3,0,12.5-0.1,18.8c-4.1,1-8.3,0.6-12.5,0.7
	c-15.8,0-31.7,0-47.5,0C94.3,80.4,94.4,59.4,94.4,38.3z"/>
<path fill="#4CAF50" d="M161.5,78.8c13.5-0.7,27.1-0.1,40.6-0.3c3-0.3,7.5,1,7.5,4.7c0.3,11.9,0,23.9,0.1,35.8
	c-0.1,3.1,0.2,6.3-0.4,9.4c-1.5,2.9-5.3,3.1-8.2,3.1c-12.3-0.1-24.7,0-37-0.1c-3.4,0.1-7.1-2.8-6.7-6.4c0-13.3,0-26.7,0-40
	C157.3,82.3,158.6,79.2,161.5,78.8z"/>
<path fill="#010101" d="M167,84.8c2.3,2.1,4.6,4.2,6.9,6.3c1-1,2-2,3.1-3c0.8,1.7,1.6,3.3,2.5,4.9c3.9-1.8,7.7-3.8,11.8-5.1
	c0.1,2.2,0.2,4.3,0.3,6.5c2.3,0.1,4.6,0.1,6.9,0.2c0.1,2.8,0,5.6,0.3,8.4c1.5,1.3,3.4,2.1,5.2,3c-1.8,0.5-3.5,1-5.2,1.5
	c0.4,3.9-0.3,7.8-3.4,10.3c1.5,2.6,2.8,5.3,4,8.1c-2.2-2.1-4.3-4.3-6.3-6.5c-1.3,1.1-2.5,2.2-3.8,3.3c-0.8-1.7-1.6-3.4-2.5-5
	c-3.6,1.8-7.2,3.5-10.9,5.1c-0.4-2.1-0.9-4.1-1.3-6.1c-2.2-0.2-4.7-0.1-6.5-1.6c-0.4-2.4-0.2-4.8-0.5-7.2c-1.7-0.8-3.5-1.4-5.3-2
	c1.8-0.5,3.6-1,5.4-1.5c-0.3-4.1-0.1-8.6,3.4-11.3C169.6,90.2,168.3,87.6,167,84.8z"/>
<path fill="#4CAF50" d="M169.4,97c1.6-0.2,3.3-0.2,4.8-0.7c0.6,2.3,1.2,4.6,1.7,7c1.3-1.8,2.5-3.5,3.8-5.3c3.7,1.8,7.5,3.6,11.4,4.9
	c0.1-2.1,0.2-4.3,0.6-6.4c1.5,0,3,0,4.5,0c1.9,2.9,1.2,6.4,1.3,9.6c0.1,3-0.4,5.9-1.1,8.8c-1.5-0.2-2.9-0.7-4.2-1.3
	c-1.3-1.7-1.5-4-2.2-5.9c-1.1,1.7-2,3.5-3,5.2c-3.7-1.7-7.4-3.4-11.1-4.9c-0.5,2.2-1.1,4.3-1.8,6.4c-1.5,0.1-3,0.1-4.5-0.1
	C169.2,108.6,169.7,102.8,169.4,97z"/>
<path fill="#97969B" d="M212.7,109.8c5.7-1.5,11.6-1,17.3-1c35.3,0,70.7,0,106,0c5.8,0.1,11.7-0.5,17.3,1c1.3,2.5,1,5.4,1.1,8.1
	c-0.1,9.4,0,18.7-0.1,28.1c0,3.4-0.3,7,1.3,10.2c1.2,2.7,1.9,5.7,1.8,8.7c-0.1,11.5,0,23,0,34.5c-4.6,0.2-9.3,0.2-13.9,0.1
	c-0.2-5.9,0-11.7-0.1-17.6c-0.1-2.8-0.3-5.9-1.9-8.3c-2.1-2.3-5.5-2.1-8.3-2.2c-12.4,0.1-24.8,0.1-37.2,0c-2.7,0.1-5.6,0-7.9,1.6
	c-2.3,1.9-2.4,5.2-2.5,7.9c0,6.2,0.1,12.4-0.1,18.6c-10.3,0.1-20.5,0.1-30.8,0c-0.1-7.9,0.1-15.9-0.1-23.8c2.9,7.1,1.1,15,1.5,22.5
	c9.4,0.1,18.7,0.1,28.1,0c0.1-6.1-0.1-12.1,0-18.2c0.1-2.8,0.5-6,2.9-7.8c2.8-2.1,6.5-2.1,9.9-2.1c11.4,0,22.7,0.1,34.1,0
	c3.6,0.1,7.7-0.1,10.7,2.3c2.2,1.9,2.6,5.1,2.6,7.8c0.1,6.1-0.1,12.1,0.1,18.2c3.6,0,7.3,0,11,0c0.3-9.1,0-18.1,0.2-27.2
	c0-4.4,0.2-9-1.3-13.2c-2-5.4-1.2-11.2-1.3-16.8c-0.1-10.1,0.1-20.2-0.1-30.3c-46.4-0.2-92.8-0.2-139.2,0
	c-0.1,5.1,0.2,10.2-0.1,15.3c-0.1,2.9-1.1,6.3-4,7.7c-3.3,1.6-7.1,1.4-10.7,1.5c-10,0-20-0.1-30,0c-3.5,0.1-7.1-0.3-10.3-1.8
	c14.4,0.4,28.9,0.1,43.4,0.2c3.2-0.2,7.9,0.2,9.2-3.5C213.7,123.6,211.6,116.5,212.7,109.8z"/>
<path fill="#97969B" d="M28.4,173.7c14-0.2,28.1-0.2,42.2,0c0.7,2.7-2.1,4.4-3.6,6.2c-14.4,14.2-28.4,28.8-43,42.8
	c-1.8-0.9-1.3-3-1.4-4.7c0.1-12.6-0.1-25.3,0.1-38C22.4,176.7,25.2,174.1,28.4,173.7z"/>
<path fill="#4CAF50" d="M115.6,174c1.4-0.5,2.9-0.4,4.3-0.4c11.4,0.1,22.8,0,34.2,0c3.3,0,6.9,0.5,9.1,3.2c0.5,2,0.4,4.1,0.4,6.2
	c-0.1,12.7,0,25.3-0.1,38c0.4,3.6-3.4,5.8-6.5,5.6c-13,0.1-26,0-39,0c-3.2,0.2-7-2-6.6-5.6c-0.1-13.9-0.1-27.9,0-41.9
	C111.1,176.5,113.5,174.8,115.6,174z"/>
<path fill="#4CAF50" d="M203.1,174.5c1.6-0.5,3.2-1,4.9-0.9c12.1,0,24.1,0.1,36.2,0c2.5-0.1,5.3,0.4,6.9,2.4c1.9,2.6,1.3,6,1.5,9
	c-0.2,12.8,0.2,25.5-0.2,38.2c-2.1-1.5-4.7-2.1-6.3-4.2c-7.1-7.9-15.1-14.9-22.4-22.6c-5.7-5.9-11.6-11.6-17.5-17.3
	C204.7,177.7,203.5,176.3,203.1,174.5z"/>
<path fill="#4CAF50" d="M292.6,173.9c11.4-0.7,22.9-0.1,34.4-0.3c4.5,0.1,10-0.8,13.1,3.2c0.6,2,0.4,4.1,0.5,6.1
	c-0.1,12.7,0.1,25.3-0.1,38c0.2,3.4-3.4,5.8-6.5,5.6c-13.3,0-26.6,0.1-39.9,0c-3,0.3-6-2.3-5.7-5.4c-0.1-14.1-0.1-28.1,0-42.2
	C288.2,176.4,290.4,174.6,292.6,173.9z"/>
<path fill="#97969B" d="M65.3,185.4c3-3.3,6.2-6.4,9.8-9.1c0.6,14.6,0.2,29.2,0.2,43.8c0.3,3.5-2.8,6.8-6.4,6.4
	c-14.5-0.1-28.9,0.3-43.4-0.2c2.5-3.9,5.9-7.2,9.3-10.4C45,205.7,55.3,195.7,65.3,185.4z"/>
<path fill="#4CAF50" d="M199.5,186c-0.1-2.8,0.3-5.7,1-8.4c10.4,8.9,19.4,19.3,29.2,28.7c6.3,6.3,12.9,12.3,18.6,19.2
	c-5.3,1.6-10.8,0.9-16.3,1c-8.7-0.1-17.4,0.1-26.1,0c-3.5,0.4-6.5-3.1-6.4-6.4C199.5,208.7,199.6,197.4,199.5,186z"/>
<path fill="#010101" d="M26.4,186.8c1.7-2.9,4.2-6.9,8.1-6.2c3.8,1.8,6,5.5,9.5,7.6c2.8-0.8,5.3-2.2,8.1-3.1c-2,2.8-4.5,7.4-8.7,6.2
	c-3.6-2-6.2-5.3-9.2-8C31.7,184.6,29.1,185.9,26.4,186.8z"/>
<path fill="#010101" d="M136.8,181.2c0.4,1.3,0.8,2.5,1.3,3.8c3.9,0.4,7.7,0.3,11.6,0.4c0,0.6,0,1.7,0,2.3c-7.2,0-14.5,0.1-21.7,0
	c-2.1,0.1-3.9-0.8-5.6-1.8c3.5-0.5,7-0.3,10.5-0.8C135,184.9,135.7,182.6,136.8,181.2z"/>
<path fill="#010101" d="M222.2,186.6c2-2.5,4.7-5.9,8.3-5c3.2,1.7,5.4,4.7,8.2,6.8c3,0.7,5.9-1.3,8.7-2.1c-1.9,2.7-4,7-8,6
	c-3.2-1.6-5.3-4.8-8.2-6.8C228.2,184,225,188.1,222.2,186.6z"/>
<path fill="#010101" d="M305.3,187.5c3.2-0.1,6.3,1.4,9.4,0.8c3.3-0.6,6.6-0.9,9.9-0.5c6.7,1.5,10.4,9.7,7.9,15.9
	c-1,4-4.6,6.8-8.4,8.1c-3,1.3-6.2-0.4-9.2-0.5c-3.3-0.5-6.5,0.7-9.8,1c-4.4-0.7-9.1-3.1-10.5-7.6
	C291.2,197.4,296.6,186.8,305.3,187.5z"/>
<path fill="#4CAF50" d="M317,189.8c1-0.6,2.1-1.1,3.1-1.7c3.8,1.6,8.1,3.1,10,7.1c1.3,4.4,0.9,9.9-3.2,12.9c-2.8,3-7.2,2.7-10.9,1.8
	c0.9-2.9,2.4-5.8,2.5-8.9C319,197.2,317.7,193.5,317,189.8z"/>
<path fill="#4CAF50" d="M303,189.6c2.3-0.4,4.6-0.2,6.9-0.2c-0.6,3.6-1.9,7-2.2,10.6c0.4,3.4,1.6,6.5,2.3,9.8
	c-7.3,3.3-15.2-4.3-14.5-11.6C296.5,194.4,299.3,190.9,303,189.6z"/>
<path fill="#010101" d="M130.4,191.6c3.9,0,7.8-0.1,11.7,0.1c0.6,1.2,1.2,2.3,1.8,3.5c-2,1-4.2,1.2-6.3,1.8c0,2.5-0.1,5-0.1,7.6
	c4.6-0.1,9.2,0,13.6,1.5c-4.4,2.2-9.3,1.5-14,1.6c-4.7-0.1-9.7,0.7-14.1-1.6c4.1-1.5,8.4-1.6,12.7-1.5c0-2.3,0-4.6-0.2-6.8
	c-1.6-1-3.4-1.5-5.1-2.3C130.4,194.1,130.4,192.8,130.4,191.6z"/>
<path fill="#4CAF50" d="M309.6,198.2c0.7-2.4,2.1-4.6,3.3-6.8c5.3,3.9,5.1,12.3,0,16.3C311.5,204.8,308.9,201.8,309.6,198.2z"/>
<path fill="#010101" d="M50.3,208.6c6.7,0,13.4-0.1,20.1,0.1c0,0.9,0,1.8,0,2.7c-6.7,0.1-13.4,0-20.1,0.1
	C50.3,210.5,50.3,209.5,50.3,208.6z"/>
<path fill="#010101" d="M204.6,208.7c6.9-0.1,13.8-0.2,20.7,0c0,0.9,0,1.8,0,2.7c-6.9,0.1-13.8,0.1-20.7,0
	C204.7,210.7,204.7,209.4,204.6,208.7z"/>
<path fill="#010101" d="M129.2,211.6c4.3-0.2,8.6-0.2,12.9-0.2c0.4,0.7,1.1,2,1.5,2.7c-2.4,1.6-4.9,3-7.2,4.6
	C133.6,216.8,130.6,215,129.2,211.6z"/>
<path fill="#010101" d="M48.3,217c1.8-0.8,3.6-1.7,5.6-1.6c5.3-0.1,10.5,0,15.8,0.1c0,0.5,0,1.6,0.1,2.2
	C62.6,217.7,55.3,219.4,48.3,217z"/>
<path fill="#010101" d="M204.1,215.8c6.8-0.8,13.8-0.3,20.6-0.4c0,0.7-0.1,2-0.1,2.7C217.8,218,210,220.2,204.1,215.8z"/>
</svg>
