<svg id="Layer_1" data-name="Layer 1" xmlns="http://www.w3.org/2000/svg" xmlns:xlink="http://www.w3.org/1999/xlink" width="64" height="64" viewBox="0 0 64 64"><defs><clipPath id="clip-path"><rect width="64" height="64" style="fill:none"/></clipPath></defs><title>cb</title><g style="clip-path:url(#clip-path)"><rect x="18" y="18" width="28" height="28" style="fill:#fff"/><rect x="18" y="18" width="28" height="28" style="fill:none;stroke:#464646;stroke-miterlimit:10"/><g style="clip-path:url(#clip-path)"><path d="M54,42a2,2,0,1,1,2-2,2,2,0,0,1-2,2" style="fill:#fff"/><path d="M54,38.5A1.5,1.5,0,1,1,52.5,40,1.5,1.5,0,0,1,54,38.5m0-1A2.5,2.5,0,1,0,56.5,40,2.5,2.5,0,0,0,54,37.5" style="fill:#464646"/><path d="M54,26a2,2,0,1,1,2-2,2,2,0,0,1-2,2" style="fill:#fff"/><path d="M54,22.5A1.5,1.5,0,1,1,52.5,24,1.5,1.5,0,0,1,54,22.5m0-1A2.5,2.5,0,1,0,56.5,24,2.5,2.5,0,0,0,54,21.5" style="fill:#464646"/><line x1="32" y1="18" x2="32" style="fill:none;stroke:#464646;stroke-miterlimit:10;stroke-width:1.8969999551773071px"/><line x1="32" y1="64" x2="32" y2="46" style="fill:none;stroke:#464646;stroke-miterlimit:10;stroke-width:1.8969999551773071px"/></g></g></svg>