<svg id="Layer_1" data-name="Layer 1" xmlns="http://www.w3.org/2000/svg" xmlns:xlink="http://www.w3.org/1999/xlink" width="64" height="64" viewBox="0 0 64 64"><defs><clipPath id="clip-path"><rect width="64" height="64" style="fill:none"/></clipPath></defs><title>cb</title><g style="clip-path:url(#clip-path)"><rect x="18" y="18" width="28" height="28" style="fill:#fff"/><polyline points="46 41 46 46 41 46" style="fill:none;stroke:#f03040;stroke-miterlimit:10"/><line x1="35" y1="46" x2="26" y2="46" style="fill:none;stroke:#f03040;stroke-miterlimit:10;stroke-dasharray:6,6"/><polyline points="23 46 18 46 18 41" style="fill:none;stroke:#f03040;stroke-miterlimit:10"/><line x1="18" y1="35" x2="18" y2="26" style="fill:none;stroke:#f03040;stroke-miterlimit:10;stroke-dasharray:6,6"/><polyline points="18 23 18 18 23 18" style="fill:none;stroke:#f03040;stroke-miterlimit:10"/><line x1="29" y1="18" x2="38" y2="18" style="fill:none;stroke:#f03040;stroke-miterlimit:10;stroke-dasharray:6,6"/><polyline points="41 18 46 18 46 23" style="fill:none;stroke:#f03040;stroke-miterlimit:10"/><line x1="46" y1="29" x2="46" y2="38" style="fill:none;stroke:#f03040;stroke-miterlimit:10;stroke-dasharray:6,6"/><g style="clip-path:url(#clip-path)"><path d="M32,42a2,2,0,1,1,2-2,2,2,0,0,1-2,2" style="fill:#fff"/><path d="M32,38.5A1.5,1.5,0,1,1,30.5,40,1.5,1.5,0,0,1,32,38.5m0-1A2.5,2.5,0,1,0,34.5,40,2.5,2.5,0,0,0,32,37.5" style="fill:#464646"/><path d="M32,26a2,2,0,1,1,2-2,2,2,0,0,1-2,2" style="fill:#fff"/><path d="M32,22.5A1.5,1.5,0,1,1,30.5,24,1.5,1.5,0,0,1,32,22.5m0-1A2.5,2.5,0,1,0,34.5,24,2.5,2.5,0,0,0,32,21.5" style="fill:#464646"/><path d="M63,8a7,7,0,1,1-7-7,7,7,0,0,1,7,7" style="fill:#f03040"/><line x1="53.38" y1="5.38" x2="58.63" y2="10.63" style="fill:none;stroke:#f0f0f0;stroke-miterlimit:10;stroke-width:1.5750000476837158px"/><line x1="58.63" y1="5.38" x2="53.38" y2="10.63" style="fill:none;stroke:#f0f0f0;stroke-miterlimit:10;stroke-width:1.5750000476837158px"/></g><g style="clip-path:url(#clip-path)"><path d="M63,8a7,7,0,1,1-7-7,7,7,0,0,1,7,7" style="fill:#f03040"/><line x1="53.38" y1="5.38" x2="58.63" y2="10.63" style="fill:none;stroke:#f0f0f0;stroke-miterlimit:10;stroke-width:1.5750000476837158px"/><line x1="58.63" y1="5.38" x2="53.38" y2="10.63" style="fill:none;stroke:#f0f0f0;stroke-miterlimit:10;stroke-width:1.5750000476837158px"/><line x1="32" y1="18" x2="32" style="fill:none;stroke:#f03040;stroke-miterlimit:10;stroke-width:2px"/><line x1="32" y1="64" x2="32" y2="46" style="fill:none;stroke:#f03040;stroke-miterlimit:10;stroke-width:2px"/></g></g></svg>