<?xml version="1.0" encoding="utf-8"?>
<!-- Generator: Adobe Illustrator 19.2.0, SVG Export Plug-In . SVG Version: 6.00 Build 0)  -->
<svg version="1.1" id="Layer_30" xmlns="http://www.w3.org/2000/svg" xmlns:xlink="http://www.w3.org/1999/xlink" x="0px" y="0px"
	 width="24px" height="24px" viewBox="0 0 24 24" enable-background="new 0 0 24 24" xml:space="preserve">
<g id="audittrial_x5F_outline_x5F_24">
	<path fill="#3C3C3C" d="M16.1,1H4v22h16V4.8L16.1,1z M16,2.3L18.7,5H16V2.3z M19,22H5V2h10v3v1h4V22z"/>
	<path fill="#3C3C3C" d="M7,14c0,2.8,2.2,5,5,5c1.2,0,2.3-0.4,3.1-1.1l2.4,2.4l0.7-0.7l-2.4-2.4c0.7-0.9,1.1-1.9,1.1-3.1
		c0-2.8-2.2-5-5-5C9.2,9,7,11.2,7,14z M16,14c0,2.2-1.8,4-4,4c-2.2,0-4-1.8-4-4s1.8-4,4-4C14.2,10,16,11.8,16,14z"/>
</g>
</svg>
