<?xml version="1.0" encoding="utf-8"?>
<!-- Generator: Adobe Illustrator 19.2.0, SVG Export Plug-In . SVG Version: 6.00 Build 0)  -->
<svg version="1.1" id="Layer_30" xmlns="http://www.w3.org/2000/svg" xmlns:xlink="http://www.w3.org/1999/xlink" x="0px" y="0px"
	 width="18px" height="18px" viewBox="0 0 18 18" enable-background="new 0 0 18 18" xml:space="preserve">
<g id="audittrial_x5F_18">
	<path fill="#3C3C3C" d="M4,2h7v3h3v4h1V3.8L12.2,1H3v16h11v-1H4V2z M13.8,4H12V2.2L13.8,4z"/>
	<path fill="#3C3C3C" d="M14.4,13.7c0.3-0.5,0.6-1.1,0.6-1.7c0-1.7-1.3-3-3-3s-3,1.3-3,3s1.3,3,3,3c0.6,0,1.2-0.2,1.7-0.6l1.9,1.9
		l0.7-0.7L14.4,13.7z M10,12c0-1.1,0.9-2,2-2s2,0.9,2,2s-0.9,2-2,2S10,13.1,10,12z"/>
</g>
</svg>
