<?xml version="1.0" encoding="utf-8"?>
<!-- Generator: Adobe Illustrator 19.2.0, SVG Export Plug-In . SVG Version: 6.00 Build 0)  -->
<svg version="1.1" id="Layer_30" xmlns="http://www.w3.org/2000/svg" xmlns:xlink="http://www.w3.org/1999/xlink" x="0px" y="0px"
	 width="24px" height="24px" viewBox="0 0 24 24" enable-background="new 0 0 24 24" xml:space="preserve">
<g id="calendar_x5F_outline_x5F_24">
	<path fill="#3C3C3C" d="M1,2v4v1v15h22V2H1z M22,21H2V7h20V21z M22,6H2V3h20V6z"/>
	<path fill="#3C3C3C" d="M7,19h1h2h1h2h1h2h1h3V9H4v3v1v6H7z M5,18v-2h2v2H5z M8,18v-2h2v2H8z M13,15h-2v-2h2V15z M14,13h2v2h-2V13z
		 M10,15H8v-2h2V15z M11,18v-2h2v2H11z M14,18v-2h2v2H14z M19,18h-2v-2h2V18z M19,15h-2v-2h2V15z M19,10v2h-2v-2H19z M16,10v2h-2v-2
		H16z M13,10v2h-2v-2H13z M10,10v2H8v-2H10z M5,10h2v2H5V10z M7,13v2H5v-2H7z"/>
</g>
</svg>
