<?xml version="1.0" encoding="utf-8"?>
<!-- Generator: Adobe Illustrator 19.2.0, SVG Export Plug-In . SVG Version: 6.00 Build 0)  -->
<svg version="1.1" id="Layer_30" xmlns="http://www.w3.org/2000/svg" xmlns:xlink="http://www.w3.org/1999/xlink" x="0px" y="0px"
	 width="18px" height="18px" viewBox="0 0 18 18" enable-background="new 0 0 18 18" xml:space="preserve">
<g id="calendar_x5F_18">
	<path fill="#3C3C3C" d="M1,1v3v1v12h16V1H1z M16,16H2V5h14V16z M16,4H2V2h14V4z"/>
	<path fill="#3C3C3C" d="M14,14v-3v-1V7H4v3v1v3H14z M8,13v-2h2v2H8z M13,13h-2v-2h2V13z M13,8v2h-2V8H13z M10,8v2H8V8H10z M5,8h2v2
		H5V8z M7,11v2H5v-2H7z"/>
</g>
</svg>
