<?xml version="1.0" encoding="utf-8"?>
<!-- Generator: Adobe Illustrator 19.2.0, SVG Export Plug-In . SVG Version: 6.00 Build 0)  -->
<svg version="1.1" id="Layer_30" xmlns="http://www.w3.org/2000/svg" xmlns:xlink="http://www.w3.org/1999/xlink" x="0px" y="0px"
	 width="24px" height="24px" viewBox="0 0 24 24" enable-background="new 0 0 24 24" xml:space="preserve">
<g id="calendar_x5F_filled_x5F_24">
	<g>
		<rect x="14" y="13" fill="#3C3C3C" width="2" height="2"/>
		<rect x="11" y="10" fill="#3C3C3C" width="2" height="2"/>
		<rect x="11" y="13" fill="#3C3C3C" width="2" height="2"/>
		<rect x="14" y="10" fill="#3C3C3C" width="2" height="2"/>
		<rect x="17" y="13" fill="#3C3C3C" width="2" height="2"/>
		<rect x="11" y="16" fill="#3C3C3C" width="2" height="2"/>
		<rect x="17" y="10" fill="#3C3C3C" width="2" height="2"/>
		<rect x="17" y="16" fill="#3C3C3C" width="2" height="2"/>
		<rect x="14" y="16" fill="#3C3C3C" width="2" height="2"/>
		<rect x="5" y="16" fill="#3C3C3C" width="2" height="2"/>
		<rect x="8" y="10" fill="#3C3C3C" width="2" height="2"/>
		<rect x="5" y="13" fill="#3C3C3C" width="2" height="2"/>
		<rect x="8" y="13" fill="#3C3C3C" width="2" height="2"/>
		<rect x="8" y="16" fill="#3C3C3C" width="2" height="2"/>
		<rect x="5" y="10" fill="#3C3C3C" width="2" height="2"/>
		<g>
			<rect x="1" y="2" fill="#3C3C3C" width="22" height="4"/>
			<path fill="#3C3C3C" d="M1,22h22V7H1V22z M4,13v-1V9h16v10h-3h-1h-2h-1h-2h-1H8H7H4V13z"/>
		</g>
	</g>
</g>
</svg>
