<?xml version="1.0" encoding="utf-8"?>
<!-- Generator: Adobe Illustrator 19.2.0, SVG Export Plug-In . SVG Version: 6.00 Build 0)  -->
<svg version="1.1" id="Layer_30" xmlns="http://www.w3.org/2000/svg" xmlns:xlink="http://www.w3.org/1999/xlink" x="0px" y="0px"
	 width="24px" height="24px" viewBox="0 0 24 24" enable-background="new 0 0 24 24" xml:space="preserve">
<g id="numerical_x5F_outline_x5F_24">
	<g>
		<path fill="#3C3C3C" d="M2,15.2c0.3-0.7,1-1.5,2-2.1l1.5-0.9c0.7-0.4,1.1-0.8,1.4-1c0.4-0.4,0.6-0.9,0.6-1.5
			c0-0.7-0.2-1.2-0.6-1.6S6,7.6,5.4,7.6c-1,0-1.6,0.2-2,1C3.2,8.9,3.1,10,3.1,10H1.6c0-1,0.2-1.6,0.5-2.2c0.6-1.1,1.7-1.6,3.2-1.6
			c1.3,0,2.2,0.4,2.8,1.1C8.8,8,9.1,8.8,9.1,9.6c0,0.9-0.3,1.7-0.9,2.3c-0.4,0.4-1,0.8-2,1.3l-1.1,0.6c-0.5,0.3-0.9,0.5-1.2,0.7
			C3.4,15,3.1,16,2.9,16H9v2H1.4C1.4,17,1.6,16,2,15.2z"/>
		<path fill="#3C3C3C" d="M11.1,15.8h1.6v1.7h-1.6V15.8z"/>
		<path fill="#3C3C3C" d="M16.2,15c0.1,0,0.5,1.2,1.1,1.5c0.3,0.2,0.7,0.1,1.2,0.1c0.8,0,1.5-0.3,1.9-0.8c0.4-0.5,0.6-1.1,0.6-1.8
			c0-0.8-0.2-1.4-0.7-1.8s-1-0.6-1.7-0.6c-0.5,0-0.9,0.1-1.2,0.3c-0.3,0.2-0.6,0.4-0.9,0.8l-1.2,0.2L16,7h6v1h-5l-0.5,3
			c0.3-0.2,0.5-0.4,0.7-0.5c0.4-0.2,0.9-0.3,1.4-0.3c1,0,1.9,0.3,2.6,1c0.7,0.7,1.1,1.5,1.1,2.5c0,1.1-0.3,2-1,2.8
			c-0.7,0.8-1.7,1.2-3.1,1.2c-0.9,0-1.7-0.1-2.4-0.6c-0.7-0.5-1.1-1.2-1.2-2.2H16.2z"/>
	</g>
</g>
</svg>
