<?xml version="1.0" encoding="utf-8"?>
<!-- Generator: Adobe Illustrator 19.2.0, SVG Export Plug-In . SVG Version: 6.00 Build 0)  -->
<svg version="1.1" id="Layer_30" xmlns="http://www.w3.org/2000/svg" xmlns:xlink="http://www.w3.org/1999/xlink" x="0px" y="0px"
	 width="24px" height="24px" viewBox="0 0 24 24" enable-background="new 0 0 24 24" xml:space="preserve">
<g id="numerical_x5F_filled_x5F_24">
	<g>
		<path fill="#3C3C3C" d="M1.9,15.5C2.2,14.8,3,13.8,4.2,13c1-0.7,1.7-1.3,2-1.6c0.5-0.5,0.7-1.1,0.7-1.7c0-0.5-0.1-0.9-0.4-1.2
			S5.8,8,5.3,8C4.6,8,4.2,8.2,3.9,8.7C3.8,9,3.7,10,3.7,10H1.5c0-1,0.2-1.7,0.5-2.3c0.6-1.1,1.6-1.7,3.2-1.7c1.2,0,2.2,0.4,2.9,1
			s1.1,1.6,1.1,2.6c0,0.8-0.3,1.6-0.8,2.2c-0.3,0.4-0.9,0.9-1.6,1.4l-0.9,0.6c-0.6,0.4-0.9,0.9-1.1,1.1C4.5,15.3,4.3,15,4.2,16H9v2
			H1.4C1.4,17,1.6,16.2,1.9,15.5z"/>
		<path fill="#3C3C3C" d="M11,15h2v3h-2V15z"/>
		<path fill="#3C3C3C" d="M16.9,14c0.1,1,0.3,1.1,0.5,1.4c0.2,0.3,0.6,0.5,1.1,0.5c0.6,0,1-0.1,1.3-0.5s0.4-0.8,0.4-1.4
			c0-0.6-0.1-1.1-0.4-1.5c-0.3-0.4-0.7-0.6-1.3-0.6c-0.3,0-0.5,0-0.7,0.1c-0.3,0.1-0.6,0.4-0.8,0.7l-2-0.3L15.8,6H22v2h-4.6L17,10.6
			c0.3-0.2,0.6-0.3,0.8-0.4c0.3-0.1,0.7-0.2,1.2-0.2c0.9,0,1.8,0.3,2.4,1c0.7,0.6,1,1.6,1,2.8c0,1-0.3,2-1,2.8
			c-0.7,0.8-1.7,1.2-3,1.2c-1.1,0-2-0.5-2.7-1.1c-0.7-0.6-1.1-0.7-1.2-2.7H16.9z"/>
	</g>
</g>
</svg>
