<?xml version="1.0" encoding="utf-8"?>
<!-- Generator: Adobe Illustrator 19.2.0, SVG Export Plug-In . SVG Version: 6.00 Build 0)  -->
<svg version="1.1" id="Layer_30" xmlns="http://www.w3.org/2000/svg" xmlns:xlink="http://www.w3.org/1999/xlink" x="0px" y="0px"
	 width="18px" height="18px" viewBox="0 0 18 18" enable-background="new 0 0 18 18" xml:space="preserve">
<g id="numerical_x5F_18">
	<g>
		<path fill="#3C3C3C" d="M1.4,11.4c0.2-0.6,0.8-1.2,1.7-1.8C3.9,9,4.4,8.6,4.6,8.4C5,8,5.1,7.6,5.1,7.2c0-0.4-0.1-0.7-0.3-0.9
			S4.3,5.9,4,5.9c-0.5,0-0.9,0.4-1,0.8C2.8,6.9,2.8,7,2.8,8H1.1c0-1,0.2-1.5,0.4-2C2,5.2,2.8,4.6,3.9,4.6c0.9,0,1.6,0.2,2.1,0.7
			s0.8,1.1,0.8,1.9c0,0.6-0.2,1.2-0.6,1.7C6,9.3,5.6,9.6,5.1,10l-0.7,0.5c-0.4,0.3-0.7,0.7-0.9,0.9S3.2,11,3.1,12H7v1H1
			C1,12,1.2,11.9,1.4,11.4z"/>
		<path fill="#3C3C3C" d="M8.1,11.3h1.8v1.8H8.1V11.3z"/>
		<path fill="#3C3C3C" d="M12.6,11c0.1,0,0.2,0.5,0.4,0.7s0.5,0.2,0.8,0.2c0.4,0,0.7-0.2,0.9-0.5c0.2-0.3,0.3-0.7,0.3-1.1
			c0-0.4-0.1-0.8-0.3-1.1c-0.2-0.3-0.5-0.5-0.9-0.5c-0.2,0-0.4,0-0.5,0.1c-0.3,0.1-0.5,0.3-0.6,0.5l-1.5,0.1L11.8,5H17v1h-3.9
			l-0.3,1.9c0.3-0.2,0.5-0.3,0.6-0.3c0.2-0.1,0.5-0.1,0.9-0.1c0.7,0,1.3,0.2,1.8,0.7s0.8,1.2,0.8,2.1c0,0.8-0.3,1.5-0.8,2.1
			c-0.5,0.6-1.3,0.9-2.3,0.9c-0.8,0-1.5-0.1-2-0.5S11,12,11,11H12.6z"/>
	</g>
</g>
</svg>
