<?xml version="1.0" encoding="utf-8"?>
<!-- Generator: Adobe Illustrator 19.2.0, SVG Export Plug-In . SVG Version: 6.00 Build 0)  -->
<svg version="1.1" id="Layer_30" xmlns="http://www.w3.org/2000/svg" xmlns:xlink="http://www.w3.org/1999/xlink" x="0px" y="0px"
	 width="18px" height="18px" viewBox="0 0 18 18" enable-background="new 0 0 18 18" xml:space="preserve">
<g id="database_x5F_18">
	<path fill="#3C3C3C" d="M2,4.4c0.3,0.1,0.6,0.3,0.9,0.5C3,4.9,3.1,5,3.1,5l0,0C4.3,5.5,6.3,6,9,6c2.7,0,4.8-0.5,6-1
		c0.4-0.2,0.7-0.3,1-0.5c0.2-0.1,0.4-0.2,0.5-0.3c0,0,0,0,0,0C16.7,4,16.9,3.9,17,3.9c0-0.1,0-0.2-0.1-0.3C16.4,1.9,12.7,1,9,1
		C5.3,1,1.6,1.9,1.1,3.6C1,3.7,1,3.8,1,3.9C1.3,4,1.6,4.2,2,4.4L2,4.4z"/>
	<path fill="#3C3C3C" d="M16,10.5c-0.1,0.1-0.2,0.1-0.3,0.2c-0.2,0.1-0.4,0.2-0.6,0.3c0,0-0.1,0-0.1,0.1c-0.4,0.2-0.9,0.3-1.3,0.4
		c-1.4,0.3-3,0.5-4.6,0.5s-3.2-0.2-4.6-0.5c-0.5-0.1-0.9-0.3-1.3-0.4c0,0,0,0,0,0c-0.3-0.1-0.6-0.3-0.9-0.4c-0.1,0-0.2-0.1-0.2-0.1
		v0c-0.4-0.2-0.7-0.4-1-0.6V14c0,2,4,3,8,3s8-1,8-3V9.9C16.7,10.1,16.4,10.3,16,10.5L16,10.5z"/>
	<path fill="#3C3C3C" d="M16,5.5c-0.1,0.1-0.2,0.1-0.3,0.2C15.5,5.8,15.3,5.9,15,6c0,0-0.1,0-0.1,0.1c-0.4,0.2-0.9,0.3-1.3,0.4
		C12.2,6.8,10.6,7,9,7S5.8,6.8,4.4,6.5C4,6.4,3.5,6.2,3.1,6.1c0,0,0,0,0,0C2.8,6,2.5,5.8,2.2,5.7C2.2,5.6,2.1,5.6,2,5.5v0
		C1.6,5.3,1.3,5.1,1,4.9v3.6v0.3C1.1,8.9,1.3,9,1.4,9.1c0,0,0,0,0,0C1.6,9.2,1.8,9.3,2,9.4c0.3,0.1,0.6,0.3,0.9,0.5
		C3,9.9,3.1,10,3.1,10l0,0c1.2,0.5,3.2,1,5.9,1c2.7,0,4.8-0.5,6-1c0.4-0.2,0.7-0.3,1-0.5l0,0c0.2-0.1,0.4-0.2,0.6-0.3c0,0,0,0,0,0
		C16.7,9,16.9,8.9,17,8.8V8.5V4.9C16.7,5.1,16.4,5.3,16,5.5L16,5.5z"/>
</g>
</svg>
