<?xml version="1.0" encoding="utf-8"?>
<!-- Generator: Adobe Illustrator 19.2.0, SVG Export Plug-In . SVG Version: 6.00 Build 0)  -->
<svg version="1.1" id="Layer_30" xmlns="http://www.w3.org/2000/svg" xmlns:xlink="http://www.w3.org/1999/xlink" x="0px" y="0px"
	 width="24px" height="24px" viewBox="0 0 24 24" enable-background="new 0 0 24 24" xml:space="preserve">
<g id="database_x5F_filled_x5F_24">
	<path fill="#3C3C3C" d="M12,10C8,10,3.9,9.2,2,7.7V10c0,1.4,4.3,3,10,3s10-1.6,10-3V7.7C20.1,9.2,16,10,12,10z"/>
	<path fill="#3C3C3C" d="M12,18c-4,0-8.1-0.8-10-2.3V18c0,2.6,5.2,4,10,4s10-1.4,10-4v-2.3C20.1,17.2,16,18,12,18z"/>
	<path fill="#3C3C3C" d="M12,17c5.7,0,10-1.6,10-3v-2.3c-1.9,1.5-6,2.3-10,2.3s-8.1-0.8-10-2.3V14C2,15.4,6.3,17,12,17z"/>
	<path fill="#3C3C3C" d="M12,9c5.7,0,10-1.6,10-3c0-2.6-5.2-4-10-4S2,3.4,2,6C2,7.4,6.3,9,12,9z"/>
</g>
</svg>
