<?xml version="1.0" encoding="utf-8"?>
<!-- Generator: Adobe Illustrator 19.2.0, SVG Export Plug-In . SVG Version: 6.00 Build 0)  -->
<svg version="1.1" id="Layer_30" xmlns="http://www.w3.org/2000/svg" xmlns:xlink="http://www.w3.org/1999/xlink" x="0px" y="0px"
	 width="24px" height="24px" viewBox="0 0 24 24" enable-background="new 0 0 24 24" xml:space="preserve">
<path id="database_x5F_outline_x5F_24" fill="#3C3C3C" d="M12,2C7.2,2,2,3.4,2,6v1.7V10v1.7V14v1.7V18c0,2.6,5.2,4,10,4
	c4.8,0,10-1.4,10-4v-2.3V14v-2.3V10V7.7V6C22,3.4,16.8,2,12,2z M21,18c0,1.4-3.7,3-9,3c-5.3,0-9-1.6-9-3v-1.6c2.1,1.1,5.6,1.6,9,1.6
	c3.4,0,6.9-0.6,9-1.6V18z M21,15.2c-1.6,1-4.9,1.8-9,1.8c-4.1,0-7.4-0.8-9-1.8v-2.9c2.1,1.1,5.6,1.6,9,1.6c3.4,0,6.9-0.6,9-1.6V15.2
	z M21,11.2c-1.6,1-4.9,1.8-9,1.8c-4.1,0-7.4-0.8-9-1.8V8.4C5.1,9.4,8.6,10,12,10c3.4,0,6.9-0.6,9-1.6V11.2z M21,7.2
	c-1.6,1-4.9,1.8-9,1.8C7.9,9,4.6,8.2,3,7.2V6c0-1.4,3.7-3,9-3c5.3,0,9,1.6,9,3V7.2z"/>
</svg>
