<?xml version="1.0" encoding="utf-8"?>
<!-- Generator: Adobe Illustrator 19.2.0, SVG Export Plug-In . SVG Version: 6.00 Build 0)  -->
<svg version="1.1" id="Layer_30" xmlns="http://www.w3.org/2000/svg" xmlns:xlink="http://www.w3.org/1999/xlink" x="0px" y="0px"
	 width="24px" height="24px" viewBox="0 0 24 24" enable-background="new 0 0 24 24" xml:space="preserve">
<g id="edit_x5F_outline_x5F_24">
	<g>
		<rect x="3.3" y="10.7" transform="matrix(0.7071 -0.7071 0.7071 0.7071 -4.7439 10.9228)" fill="#3C3C3C" width="15" height="1"/>
	</g>
	<g>
		<rect x="5.3" y="12.7" transform="matrix(0.7071 -0.7071 0.7071 0.7071 -5.5723 12.9229)" fill="#3C3C3C" width="15" height="1"/>
	</g>
	<path fill="#3C3C3C" d="M18.1,1h-1.4L3,14.8L1,23l8.3-2L23,7.3V5.9L18.1,1z M4.5,14.7l9.9-9.9l4.9,4.9l-9.9,9.9L4.5,14.7z
		 M2.8,19.8l1.1-4.2l4.6,4.6l-4.3,1L2.8,19.8z M22,6.9L19.9,9l-4.9-4.9L17.1,2h0.7L22,6.3V6.9z"/>
</g>
</svg>
