<?xml version="1.0" encoding="utf-8"?>
<!-- Generator: Adobe Illustrator 19.2.0, SVG Export Plug-In . SVG Version: 6.00 Build 0)  -->
<svg version="1.1" id="Layer_30" xmlns="http://www.w3.org/2000/svg" xmlns:xlink="http://www.w3.org/1999/xlink" x="0px" y="0px"
	 width="24px" height="24px" viewBox="0 0 24 24" enable-background="new 0 0 24 24" xml:space="preserve">
<g id="favourite_x5F_outline_x5F_24">
	<g>
		<g>
			<path fill="#3C3C3C" d="M23,9.5l-7.6-1.1L12,1.5L8.6,8.4L1,9.5l5.5,5.4l-1.3,7.6l6.8-3.6l6.8,3.6l-1.3-7.6L23,9.5z M12.5,18
				L12,17.8L11.5,18l-5,2.6l1-5.6l0.1-0.5l-0.4-0.4l-4-3.9l5.6-0.8l0.5-0.1l0.2-0.5L12,3.8l2.5,5.1l0.2,0.5l0.5,0.1l5.6,0.8l-4,3.9
				l-0.4,0.4l0.1,0.5l1,5.6L12.5,18z"/>
			<path fill="#3C3C3C" d="M23,9.5l-7.6-1.1L12,1.5L8.6,8.4L1,9.5l5.5,5.4l-1.3,7.6l6.8-3.6l6.8,3.6l-1.3-7.6L23,9.5z M12.5,18
				L12,17.8L11.5,18l-5,2.6l1-5.6l0.1-0.5l-0.4-0.4l-4-3.9l5.6-0.8l0.5-0.1l0.2-0.5L12,3.8l2.5,5.1l0.2,0.5l0.5,0.1l5.6,0.8l-4,3.9
				l-0.4,0.4l0.1,0.5l1,5.6L12.5,18z"/>
			<path fill="#3C3C3C" d="M23,9.5l-7.6-1.1L12,1.5L8.6,8.4L1,9.5l5.5,5.4l-1.3,7.6l6.8-3.6l6.8,3.6l-1.3-7.6L23,9.5z M12.5,18
				L12,17.8L11.5,18l-5,2.6l1-5.6l0.1-0.5l-0.4-0.4l-4-3.9l5.6-0.8l0.5-0.1l0.2-0.5L12,3.8l2.5,5.1l0.2,0.5l0.5,0.1l5.6,0.8l-4,3.9
				l-0.4,0.4l0.1,0.5l1,5.6L12.5,18z"/>
		</g>
	</g>
</g>
</svg>
