<?xml version="1.0" encoding="utf-8"?>
<!-- Generator: Adobe Illustrator 19.2.0, SVG Export Plug-In . SVG Version: 6.00 Build 0)  -->
<svg version="1.1" id="Layer_30" xmlns="http://www.w3.org/2000/svg" xmlns:xlink="http://www.w3.org/1999/xlink" x="0px" y="0px"
	 width="24px" height="24px" viewBox="0 0 24 24" enable-background="new 0 0 24 24" xml:space="preserve">
<g id="list_x5F_outline_x5F_24">
	<g>
		<rect x="10" y="13" fill="#3C3C3C" width="9" height="1"/>
	</g>
	<g>
		<rect x="10" y="8" fill="#3C3C3C" width="9" height="1"/>
	</g>
	<g>
		<rect x="10" y="18" fill="#3C3C3C" width="9" height="1"/>
	</g>
	<g>
		<path fill="#3C3C3C" d="M5,10h3V7H5V10z M6,8h1v1H6V8z"/>
		<path fill="#3C3C3C" d="M5,15h3v-3H5V15z M6,13h1v1H6V13z"/>
		<path fill="#3C3C3C" d="M5,20h3v-3H5V20z M6,18h1v1H6V18z"/>
		<path fill="#3C3C3C" d="M20,3V2h-1v1h-4V2h-1v1h-4V2H9v1H5V2H4v1H2v20h20V3H20z M21,22H3V4h1v1h1V4h4v1h1V4h4v1h1V4h4v1h1V4h1V22z
			"/>
	</g>
</g>
</svg>
