<?xml version="1.0" encoding="utf-8"?>
<!-- Generator: Adobe Illustrator 19.2.0, SVG Export Plug-In . SVG Version: 6.00 Build 0)  -->
<svg version="1.1" id="Layer_30" xmlns="http://www.w3.org/2000/svg" xmlns:xlink="http://www.w3.org/1999/xlink" x="0px" y="0px"
	 width="24px" height="24px" viewBox="0 0 24 24" enable-background="new 0 0 24 24" xml:space="preserve">
<g id="list_x5F_filled_x5F_24">
	<rect x="6" y="13" fill="#3C3C3C" width="1" height="1"/>
	<path fill="#3C3C3C" d="M20,3v2h-1V3h-4v2h-1V3h-4v2H9V3H5v2H4V3H2v20h20V3H20z M8,20H5v-3h3V20z M8,15H5v-3h3V15z M8,10H5V7h3V10z
		 M19,19h-9v-1h9V19z M19,14h-9v-1h9V14z M19,9h-9V8h9V9z"/>
	<rect x="6" y="8" fill="#3C3C3C" width="1" height="1"/>
	<rect x="6" y="18" fill="#3C3C3C" width="1" height="1"/>
</g>
</svg>
