<?xml version="1.0" encoding="utf-8"?>
<!-- Generator: Adobe Illustrator 19.2.0, SVG Export Plug-In . SVG Version: 6.00 Build 0)  -->
<svg version="1.1" id="Layer_30" xmlns="http://www.w3.org/2000/svg" xmlns:xlink="http://www.w3.org/1999/xlink" x="0px" y="0px"
	 width="24px" height="24px" viewBox="0 0 24 24" enable-background="new 0 0 24 24" xml:space="preserve">
<g id="location_x5F_outline_x5F_24">
	<g>
		<path fill="#3C3C3C" d="M12,1C7.7,1,4.3,4.4,4.3,8.7C4.3,13,12,23,12,23s7.7-10,7.7-14.3C19.7,4.4,16.3,1,12,1z M5.3,8.7
			C5.3,5,8.3,2,12,2s6.7,3,6.7,6.7c0,2.9-4.3,9.3-6.7,12.6C9.6,18,5.3,11.6,5.3,8.7z"/>
	</g>
	<g>
		<path fill="#3C3C3C" d="M12,14c-2.8,0-5-2.2-5-5c0-2.8,2.2-5,5-5c2.8,0,5,2.2,5,5C17,11.8,14.8,14,12,14z M12,5C9.8,5,8,6.8,8,9
			c0,2.2,1.8,4,4,4c2.2,0,4-1.8,4-4C16,6.8,14.2,5,12,5z"/>
	</g>
</g>
</svg>
