<?xml version="1.0" encoding="utf-8"?>
<!-- Generator: Adobe Illustrator 19.2.0, SVG Export Plug-In . SVG Version: 6.00 Build 0)  -->
<svg version="1.1" id="Layer_30" xmlns="http://www.w3.org/2000/svg" xmlns:xlink="http://www.w3.org/1999/xlink" x="0px" y="0px"
	 width="24px" height="24px" viewBox="0 0 24 24" enable-background="new 0 0 24 24" xml:space="preserve">
<path id="lock_x5F_filled_x5F_24" fill="#3C3C3C" d="M18,11h-1c0-1,0-2.4,0-2.5c0-3-2.5-5.5-5.5-5.5S6,5.5,6,8.5C6,8.6,6,10,6,11H5
	c-0.5,0-1,0.5-1,1v10c0,0.5,0.5,1,1,1h13c0.5,0,1-0.5,1-1V12C19,11.5,18.5,11,18,11z M7,8.5C7,6,9,4,11.5,4S16,6,16,8.5V11H7V8.5z
	 M12.3,17.8L12,17.9V19h-1v-1.1l-0.3-0.1C10.3,17.5,10,17,10,16.5c0-0.8,0.7-1.5,1.5-1.5s1.5,0.7,1.5,1.5C13,17,12.7,17.5,12.3,17.8
	z"/>
</svg>
