<?xml version="1.0" encoding="utf-8"?>
<!-- Generator: Adobe Illustrator 19.2.0, SVG Export Plug-In . SVG Version: 6.00 Build 0)  -->
<svg version="1.1" id="Layer_30" xmlns="http://www.w3.org/2000/svg" xmlns:xlink="http://www.w3.org/1999/xlink" x="0px" y="0px"
	 width="18px" height="18px" viewBox="0 0 18 18" enable-background="new 0 0 18 18" xml:space="preserve">
<path id="lock_x5F_18" fill="#3C3C3C" d="M13.5,8H13V7.5C13,5,11,3,8.5,3S4,5,4,7.5V8H3.5C2.7,8,2,8.7,2,9.5v6C2,16.3,2.7,17,3.5,17
	h10c0.8,0,1.5-0.7,1.5-1.5v-6C15,8.7,14.3,8,13.5,8z M9,13v2H8v-2.1c-0.6-0.2-1-0.8-1-1.4C7,10.7,7.7,10,8.5,10s1.5,0.7,1.5,1.5
	C10,12.2,9.6,12.8,9,13z M12,8H5V7.5C5,5.6,6.6,4,8.5,4S12,5.6,12,7.5V8z"/>
</svg>
