<?xml version="1.0" encoding="utf-8"?>
<!-- Generator: Adobe Illustrator 19.2.0, SVG Export Plug-In . SVG Version: 6.00 Build 0)  -->
<svg version="1.1" id="Layer_30" xmlns="http://www.w3.org/2000/svg" xmlns:xlink="http://www.w3.org/1999/xlink" x="0px" y="0px"
	 width="24px" height="24px" viewBox="0 0 24 24" enable-background="new 0 0 24 24" xml:space="preserve">
<g id="lock_x5F_outline_x5F_24">
	<path fill="#3C3C3C" d="M18,11h-1c0-1,0-2.4,0-2.5c0-3-2.5-5.5-5.5-5.5C8.5,3,6,5.5,6,8.5C6,8.6,6,10,6,11H5c-0.5,0-1,0.5-1,1v10
		c0,0.5,0.5,1,1,1h13c0.5,0,1-0.5,1-1V12C19,11.5,18.5,11,18,11z M7,8.5C7,6,9,4,11.5,4C14,4,16,6,16,8.5V11H7V8.5z M18,22H5V12h1
		h11h1V22z"/>
	<g>
		<path fill="#3C3C3C" d="M13,20h-3v-1.5c-0.6-0.5-1-1.2-1-2c0-1.4,1.1-2.5,2.5-2.5s2.5,1.1,2.5,2.5c0,0.8-0.4,1.5-1,2V20z M11,19h1
			v-1.1l0.2-0.1c0.5-0.3,0.8-0.8,0.8-1.3c0-0.8-0.7-1.5-1.5-1.5S10,15.7,10,16.5c0,0.5,0.3,1,0.8,1.3l0.2,0.1V19z"/>
	</g>
</g>
</svg>
