<?xml version="1.0" encoding="utf-8"?>
<!-- Generator: Adobe Illustrator 19.2.0, SVG Export Plug-In . SVG Version: 6.00 Build 0)  -->
<svg version="1.1" id="Layer_30" xmlns="http://www.w3.org/2000/svg" xmlns:xlink="http://www.w3.org/1999/xlink" x="0px" y="0px"
	 width="24px" height="24px" viewBox="0 0 24 24" enable-background="new 0 0 24 24" xml:space="preserve">
<g id="reports_x5F_outline_x5F_24">
	<path fill="#3C3C3C" d="M19.1,1H9v19h14V4.8L19.1,1z M19,2.3L21.7,5H19V2.3z M22,19H10V2h8v3v1h4V19z"/>
	<g>
		<rect x="12" y="4" fill="#3C3C3C" width="4" height="1"/>
	</g>
	<g>
		<rect x="12" y="7" fill="#3C3C3C" width="5" height="1"/>
	</g>
	<g>
		<rect x="12" y="10" fill="#3C3C3C" width="8" height="1"/>
	</g>
	<g>
		<rect x="12" y="13" fill="#3C3C3C" width="8" height="1"/>
	</g>
	<g>
		<rect x="12" y="16" fill="#3C3C3C" width="7" height="1"/>
	</g>
	<g>
		<rect x="3" y="7" fill="#3C3C3C" width="3" height="1"/>
	</g>
	<g>
		<rect x="3" y="10" fill="#3C3C3C" width="3" height="1"/>
	</g>
	<g>
		<rect x="3" y="13" fill="#3C3C3C" width="2" height="1"/>
	</g>
	<g>
		<rect x="3" y="16" fill="#3C3C3C" width="3" height="1"/>
	</g>
	<g>
		<rect x="3" y="19" fill="#3C3C3C" width="3" height="1"/>
	</g>
	<g>
		<polygon fill="#3C3C3C" points="14,22 2,22 2,5 8,5 8,4 1,4 1,23 15,23 15,21 14,21 		"/>
	</g>
</g>
</svg>
