<?xml version="1.0" encoding="utf-8"?>
<!-- Generator: Adobe Illustrator 19.2.0, SVG Export Plug-In . SVG Version: 6.00 Build 0)  -->
<svg version="1.1" id="Layer_30" xmlns="http://www.w3.org/2000/svg" xmlns:xlink="http://www.w3.org/1999/xlink" x="0px" y="0px"
	 width="24px" height="24px" viewBox="0 0 24 24" enable-background="new 0 0 24 24" xml:space="preserve">
<g id="reports_x5F_filled_x5F_24">
	<g>
		<path fill="#3C3C3C" d="M18,6V5V1H9v1v18h13h1V6H18z M12,4h4v1h-4V4z M12,7h5v1h-5V7z M19,17h-7v-1h7V17z M20,14h-8v-1h8V14z
			 M20,11h-8v-1h8V11z"/>
		<polygon fill="#3C3C3C" points="19.1,1 19,1 19,5 23,5 23,4.8 		"/>
	</g>
	<path fill="#3C3C3C" d="M8,21V4H1v1v18h13h1v-2H8z M3,13h2v1H3V13z M6,20H3v-1h3V20z M6,17H3v-1h3V17z M6,11H3v-1h3V11z M6,8H3V7h3
		V8z"/>
</g>
</svg>
