<?xml version="1.0" encoding="utf-8"?>
<!-- Generator: Adobe Illustrator 19.2.0, SVG Export Plug-In . SVG Version: 6.00 Build 0)  -->
<svg version="1.1" id="Layer_30" xmlns="http://www.w3.org/2000/svg" xmlns:xlink="http://www.w3.org/1999/xlink" x="0px" y="0px"
	 width="18px" height="18px" viewBox="0 0 18 18" enable-background="new 0 0 18 18" xml:space="preserve">
<g id="reports_x5F_18">
	<path fill="#3C3C3C" d="M14.2,1H7v3H1v13h10v-3h6V3.8L14.2,1z M14,2.2L15.8,4H14V2.2z M10,16H2V5h5v9h3V16z M8,13V2h5v3h3v8H8z"/>
	<rect x="10" y="6" fill="#3C3C3C" width="2" height="1"/>
	<rect x="10" y="4" fill="#3C3C3C" width="1" height="1"/>
	<rect x="10" y="8" fill="#3C3C3C" width="3" height="1"/>
	<rect x="10" y="10" fill="#3C3C3C" width="4" height="1"/>
	<rect x="3" y="9" fill="#3C3C3C" width="2" height="1"/>
	<rect x="3" y="7" fill="#3C3C3C" width="1" height="1"/>
	<rect x="3" y="11" fill="#3C3C3C" width="1" height="1"/>
	<rect x="3" y="13" fill="#3C3C3C" width="2" height="1"/>
</g>
</svg>
