<?xml version="1.0" encoding="utf-8"?>
<!-- Generator: Adobe Illustrator 19.2.0, SVG Export Plug-In . SVG Version: 6.00 Build 0)  -->
<svg version="1.1" id="Layer_30" xmlns="http://www.w3.org/2000/svg" xmlns:xlink="http://www.w3.org/1999/xlink" x="0px" y="0px"
	 width="24px" height="24px" viewBox="0 0 24 24" enable-background="new 0 0 24 24" xml:space="preserve">
<g id="search_x5F_outline_x5F_24">
	<g>
		<path fill="#3C3C3C" d="M9,2c3.9,0,7,3.1,7,7s-3.1,7-7,7c-3.9,0-7-3.1-7-7S5.1,2,9,2 M9,1C4.6,1,1,4.6,1,9s3.6,8,8,8
			c4.4,0,8-3.6,8-8S13.4,1,9,1L9,1z"/>
	</g>
	<g>
		<path fill="#3C3C3C" d="M9,5c2.2,0,4,1.8,4,4s-1.8,4-4,4c-2.2,0-4-1.8-4-4S6.8,5,9,5 M9,4C6.2,4,4,6.2,4,9s2.2,5,5,5
			c2.8,0,5-2.2,5-5S11.8,4,9,4L9,4z"/>
	</g>
	<g>
		<path fill="#3C3C3C" d="M16.3,14.2c-0.2,0.3-0.4,0.5-0.6,0.8l5.3,5.3L20.3,21L15,15.7c-0.3,0.2-0.5,0.4-0.8,0.6l6.1,6.1l2.2-2.1
			L16.3,14.2z"/>
	</g>
</g>
</svg>
