<?xml version="1.0" encoding="utf-8"?>
<!-- Generator: Adobe Illustrator 19.2.0, SVG Export Plug-In . SVG Version: 6.00 Build 0)  -->
<svg version="1.1" id="Layer_30" xmlns="http://www.w3.org/2000/svg" xmlns:xlink="http://www.w3.org/1999/xlink" x="0px" y="0px"
	 width="18px" height="18px" viewBox="0 0 18 18" enable-background="new 0 0 18 18" xml:space="preserve">
<path id="search_x5F_18" fill="#3C3C3C" d="M17.2,15.9l-5.5-5.5c0.7-1,1.1-2.2,1.1-3.5c0-3.3-2.7-6-6-6c-3.3,0-6,2.7-6,6
	c0,3.3,2.7,6,6,6c1.3,0,2.5-0.4,3.5-1.1l5.5,5.5L17.2,15.9z M6.8,11c-2.2,0-4-1.8-4-4s1.8-4,4-4c2.2,0,4,1.8,4,4S9,11,6.8,11z"/>
</svg>
