<?xml version="1.0" encoding="utf-8"?>
<!-- Generator: Adobe Illustrator 19.2.0, SVG Export Plug-In . SVG Version: 6.00 Build 0)  -->
<svg version="1.1" id="Layer_30" xmlns="http://www.w3.org/2000/svg" xmlns:xlink="http://www.w3.org/1999/xlink" x="0px" y="0px"
	 width="24px" height="24px" viewBox="0 0 24 24" enable-background="new 0 0 24 24" xml:space="preserve">
<g id="settings_x5F_filled_x5F_24">
	<path fill="#3C3C3C" d="M23,13.8v-3.7l-3.6-0.7c-0.1-0.3-0.2-0.6-0.3-0.8l2.1-3.1l-2.6-2.6L15.4,5c-0.3-0.1-0.5-0.2-0.8-0.3L13.8,1
		h-3.7L9.4,4.6C9.2,4.7,8.9,4.9,8.6,5L5.5,2.9L2.9,5.5L5,8.6C4.9,8.9,4.7,9.2,4.6,9.4L1,10.2v3.7l3.6,0.7c0.1,0.3,0.2,0.6,0.3,0.8
		l-2.1,3.1l2.6,2.6L8.6,19c0.3,0.1,0.5,0.2,0.8,0.3l0.7,3.6h3.7l0.7-3.6c0.3-0.1,0.6-0.2,0.8-0.3l3.1,2.1l2.6-2.6L19,15.4
		c0.1-0.3,0.2-0.5,0.3-0.8L23,13.8z M12,16c-2.2,0-4-1.8-4-4s1.8-4,4-4s4,1.8,4,4S14.2,16,12,16z"/>
</g>
</svg>
