<?xml version="1.0" encoding="utf-8"?>
<!-- Generator: Adobe Illustrator 19.2.0, SVG Export Plug-In . SVG Version: 6.00 Build 0)  -->
<svg version="1.1" id="Layer_30" xmlns="http://www.w3.org/2000/svg" xmlns:xlink="http://www.w3.org/1999/xlink" x="0px" y="0px"
	 width="24px" height="24px" viewBox="0 0 24 24" enable-background="new 0 0 24 24" xml:space="preserve">
<g id="settings_x5F_outline_x5F_24">
	<g>
		<path fill="#3C3C3C" d="M23,13.8v-3.7l-3.6-0.7c-0.1-0.3-0.2-0.6-0.3-0.8l2.1-3.1l-2.6-2.6L15.4,5c-0.3-0.1-0.5-0.2-0.8-0.3
			L13.8,1h-3.7L9.4,4.6C9.2,4.7,8.9,4.9,8.6,5L5.5,2.9L2.9,5.5L5,8.6C4.9,8.9,4.7,9.2,4.6,9.4L1,10.2v3.7l3.6,0.7
			c0.1,0.3,0.2,0.6,0.3,0.8l-2.1,3.1l2.6,2.6L8.6,19c0.3,0.1,0.5,0.2,0.8,0.3l0.7,3.6h3.7l0.7-3.6c0.3-0.1,0.6-0.2,0.8-0.3l3.1,2.1
			l2.6-2.6L19,15.4c0.1-0.3,0.2-0.5,0.3-0.8L23,13.8z M18.6,13.7l-0.2,0.5c-0.1,0.2-0.2,0.5-0.3,0.7l-0.2,0.5l0.3,0.5l1.6,2.4
			l-1.4,1.4l-2.4-1.6l-0.5-0.3L15,18.1c-0.2,0.1-0.5,0.2-0.7,0.3l-0.5,0.2l-0.1,0.6L13,22h-2l-0.6-2.8l-0.1-0.6l-0.5-0.2
			c-0.2-0.1-0.5-0.2-0.7-0.3l-0.5-0.2l-0.5,0.3l-2.4,1.6l-1.4-1.4l1.6-2.4l0.3-0.5L5.9,15c-0.1-0.2-0.2-0.5-0.3-0.7l-0.2-0.5
			l-0.6-0.1L2,13v-2l2.8-0.6l0.6-0.1l0.2-0.5C5.7,9.5,5.8,9.3,5.9,9l0.2-0.5L5.8,8.1L4.2,5.6l1.4-1.4l2.4,1.6l0.5,0.3L9,5.9
			c0.2-0.1,0.5-0.2,0.7-0.3l0.5-0.2l0.1-0.6L11,2h2l0.6,2.8l0.1,0.6l0.5,0.2c0.2,0.1,0.5,0.2,0.7,0.3l0.5,0.2l0.5-0.3l2.4-1.6
			l1.4,1.4l-1.6,2.4l-0.3,0.5L18.1,9c0.1,0.2,0.2,0.5,0.3,0.7l0.2,0.5l0.6,0.1L22,11v2l-2.8,0.6L18.6,13.7z"/>
	</g>
	<g>
		<path fill="#3C3C3C" d="M12,17c-2.8,0-5-2.2-5-5s2.2-5,5-5c2.8,0,5,2.2,5,5S14.8,17,12,17z M12,8c-2.2,0-4,1.8-4,4s1.8,4,4,4
			c2.2,0,4-1.8,4-4S14.2,8,12,8z"/>
	</g>
</g>
</svg>
