<?xml version="1.0" encoding="utf-8"?>
<!-- Generator: Adobe Illustrator 19.2.0, SVG Export Plug-In . SVG Version: 6.00 Build 0)  -->
<svg version="1.1" id="Layer_30" xmlns="http://www.w3.org/2000/svg" xmlns:xlink="http://www.w3.org/1999/xlink" x="0px" y="0px"
	 width="18px" height="18px" viewBox="0 0 18 18" enable-background="new 0 0 18 18" xml:space="preserve">
<path id="settings_x5F_18" fill="#3C3C3C" d="M17,10.4V7.6l-2.3-0.3c-0.1-0.4-0.3-0.7-0.4-1.1l1.4-1.8l-2-2l-1.8,1.4
	c-0.3-0.2-0.7-0.3-1.1-0.4L10.4,1H7.6L7.2,3.3C6.9,3.4,6.5,3.5,6.2,3.7L4.4,2.3l-2,2l1.4,1.8C3.5,6.5,3.4,6.9,3.3,7.2L1,7.6v2.9
	l2.3,0.3c0.1,0.4,0.3,0.7,0.4,1.1l-1.4,1.8l2,2l1.8-1.4c0.3,0.2,0.7,0.3,1.1,0.4L7.6,17h2.9l0.3-2.3c0.4-0.1,0.7-0.3,1.1-0.4
	l1.8,1.4l2-2l-1.4-1.8c0.2-0.3,0.3-0.7,0.4-1.1L17,10.4z M9,11.5c-1.4,0-2.5-1.1-2.5-2.5S7.6,6.5,9,6.5s2.5,1.1,2.5,2.5
	S10.4,11.5,9,11.5z"/>
</svg>
