<?xml version="1.0" encoding="utf-8"?>
<!-- Generator: Adobe Illustrator 19.2.0, SVG Export Plug-In . SVG Version: 6.00 Build 0)  -->
<svg version="1.1" id="Layer_30" xmlns="http://www.w3.org/2000/svg" xmlns:xlink="http://www.w3.org/1999/xlink" x="0px" y="0px"
	 width="18px" height="18px" viewBox="0 0 18 18" enable-background="new 0 0 18 18" xml:space="preserve">
<path id="share_x5F_18" fill="#3C3C3C" d="M13,12c-0.6,0-1.1,0.2-1.4,0.6l-4.7-3C7,9.4,7,9.2,7,9c0-0.2,0-0.4-0.1-0.5l4.7-3
	C12,5.8,12.5,6,13,6c1.1,0,2-0.9,2-2s-0.9-2-2-2s-2,0.9-2,2c0,0.2,0,0.4,0.1,0.6l-4.7,3C6,7.2,5.6,7,5,7C3.9,7,3,7.9,3,9s0.9,2,2,2
	c0.5,0,1-0.2,1.4-0.5l4.7,3c0,0.2-0.1,0.4-0.1,0.5c0,1.1,0.9,2,2,2s2-0.9,2-2S14.1,12,13,12z"/>
</svg>
