<?xml version="1.0" encoding="utf-8"?>
<!-- Generator: Adobe Illustrator 19.2.0, SVG Export Plug-In . SVG Version: 6.00 Build 0)  -->
<svg version="1.1" id="Layer_30" xmlns="http://www.w3.org/2000/svg" xmlns:xlink="http://www.w3.org/1999/xlink" x="0px" y="0px"
	 width="24px" height="24px" viewBox="0 0 24 24" enable-background="new 0 0 24 24" xml:space="preserve">
<g id="share_x5F_outline_x5F_24">
	<path fill="#3C3C3C" d="M17,15c-1,0-1.9,0.5-2.4,1.2c-0.2,0.3-0.4,0.6-0.4,0.9C14,17.4,14,17.7,14,18c0,1.7,1.4,3,3,3s3-1.3,3-3
		S18.6,15,17,15z M17,20c-1.1,0-2-0.9-2-2s0.9-2,2-2s2,0.9,2,2S18.1,20,17,20z"/>
	<path fill="#3C3C3C" d="M7.4,10.2C6.9,9.5,6,9,5,9c-1.6,0-3,1.3-3,3s1.4,3,3,3c1,0,1.9-0.5,2.4-1.2c0.2-0.3,0.4-0.6,0.4-0.9
		C8,12.6,8,12.3,8,12s0-0.6-0.1-0.9C7.8,10.8,7.6,10.5,7.4,10.2z M5,14c-1.1,0-2-0.9-2-2s0.9-2,2-2s2,0.9,2,2S6.1,14,5,14z"/>
	<path fill="#3C3C3C" d="M8.3,9.8c0.2,0.3,0.3,0.6,0.4,0.9l4.9-2.5c-0.2-0.3-0.3-0.6-0.4-0.9L8.3,9.8z"/>
	<path fill="#3C3C3C" d="M14.6,7.8C15.1,8.5,16,9,17,9c1.6,0,3-1.3,3-3s-1.4-3-3-3s-3,1.3-3,3c0,0.3,0,0.6,0.1,0.9
		C14.2,7.2,14.4,7.5,14.6,7.8z M17,4c1.1,0,2,0.9,2,2s-0.9,2-2,2s-2-0.9-2-2S15.9,4,17,4z"/>
	<path fill="#3C3C3C" d="M8.3,14.2l4.9,2.5c0.1-0.3,0.3-0.6,0.4-0.9l-4.9-2.5C8.7,13.7,8.5,14,8.3,14.2z"/>
</g>
</svg>
