<?xml version="1.0" encoding="utf-8"?>
<!-- Generator: Adobe Illustrator 19.2.0, SVG Export Plug-In . SVG Version: 6.00 Build 0)  -->
<svg version="1.1" id="Layer_30" xmlns="http://www.w3.org/2000/svg" xmlns:xlink="http://www.w3.org/1999/xlink" x="0px" y="0px"
	 width="24px" height="24px" viewBox="0 0 24 24" enable-background="new 0 0 24 24" xml:space="preserve">
<g id="time_x5F_outline_x5F_24">
	<g>
		<g>
			<path fill="#3C3C3C" d="M11.5,3c5.2,0,9.5,4.3,9.5,9.5S16.7,22,11.5,22C6.3,22,2,17.7,2,12.5S6.3,3,11.5,3 M11.5,2
				C5.7,2,1,6.7,1,12.5S5.7,23,11.5,23C17.3,23,22,18.3,22,12.5S17.3,2,11.5,2L11.5,2z"/>
		</g>
		<path fill="#3C3C3C" d="M15.9,16.1l-3-2.9c0.1-0.2,0.1-0.4,0.1-0.6c0-0.7-0.4-1.2-1-1.4V6h-1v5.1c-0.6,0.2-1,0.8-1,1.4
			c0,0.8,0.7,1.5,1.5,1.5c0.2,0,0.4-0.1,0.6-0.2l3,2.9L15.9,16.1z M11.5,13c-0.3,0-0.5-0.2-0.5-0.5s0.2-0.5,0.5-0.5s0.5,0.2,0.5,0.5
			S11.8,13,11.5,13z"/>
	</g>
</g>
</svg>
