<?xml version="1.0" encoding="utf-8"?>
<!-- Generator: Adobe Illustrator 19.2.0, SVG Export Plug-In . SVG Version: 6.00 Build 0)  -->
<svg version="1.1" id="Layer_30" xmlns="http://www.w3.org/2000/svg" xmlns:xlink="http://www.w3.org/1999/xlink" x="0px" y="0px"
	 width="24px" height="24px" viewBox="0 0 24 24" enable-background="new 0 0 24 24" xml:space="preserve">
<g id="trend_x5F_filled_x5F_24">
	<g>
		<path fill="#3C3C3C" d="M12.7,12.8l-0.9-0.5c-0.1,0.3-0.2,0.6-0.4,0.9l0.9,0.5C12.4,13.4,12.5,13.1,12.7,12.8z"/>
		<path fill="#3C3C3C" d="M5.9,14.4l-0.8,1.8c0.3,0.1,0.6,0.2,0.9,0.4l0.8-1.8C6.5,14.7,6.2,14.6,5.9,14.4z"/>
		<path fill="#3C3C3C" d="M18.2,7.5l-1.3,3.6c0.3,0.1,0.6,0.2,0.9,0.4l1.3-3.6C18.8,7.8,18.5,7.7,18.2,7.5z"/>
		<circle fill="#3C3C3C" cx="4" cy="20" r="3"/>
		<circle fill="#3C3C3C" cx="8" cy="11" r="3"/>
		<circle fill="#3C3C3C" cx="16" cy="15" r="3"/>
		<circle fill="#3C3C3C" cx="20" cy="4" r="3"/>
	</g>
</g>
</svg>
