<?xml version="1.0" encoding="utf-8"?>
<!-- Generator: Adobe Illustrator 19.2.0, SVG Export Plug-In . SVG Version: 6.00 Build 0)  -->
<svg version="1.1" id="Layer_30" xmlns="http://www.w3.org/2000/svg" xmlns:xlink="http://www.w3.org/1999/xlink" x="0px" y="0px"
	 width="18px" height="18px" viewBox="0 0 18 18" enable-background="new 0 0 18 18" xml:space="preserve">
<g id="trend_x5F_18">
	<path fill="#3C3C3C" d="M15,1c-1.1,0-2,0.9-2,2c0,0.7,0.3,1.3,0.9,1.6L12.2,9c-0.1,0-0.1,0-0.2,0c-0.6,0-1.1,0.3-1.5,0.7L8,8.4
		C8,8.3,8,8.1,8,8c0-1.1-0.9-2-2-2S4,6.9,4,8c0,0.6,0.3,1.2,0.8,1.6L3.3,13c-0.1,0-0.2,0-0.3,0c-1.1,0-2,0.9-2,2s0.9,2,2,2
		s2-0.9,2-2c0-0.6-0.3-1.2-0.8-1.6L5.7,10c0.1,0,0.2,0,0.3,0c0.6,0,1.1-0.3,1.5-0.7l2.5,1.3c0,0.1,0,0.3,0,0.4c0,1.1,0.9,2,2,2
		s2-0.9,2-2c0-0.7-0.3-1.3-0.9-1.6L14.8,5c0.1,0,0.1,0,0.2,0c1.1,0,2-0.9,2-2S16.1,1,15,1z"/>
</g>
</svg>
