<?xml version="1.0" encoding="utf-8"?>
<!-- Generator: Adobe Illustrator 19.2.0, SVG Export Plug-In . SVG Version: 6.00 Build 0)  -->
<svg version="1.1" id="Layer_30" xmlns="http://www.w3.org/2000/svg" xmlns:xlink="http://www.w3.org/1999/xlink" x="0px" y="0px"
	 width="24px" height="24px" viewBox="0 0 24 24" enable-background="new 0 0 24 24" xml:space="preserve">
<g id="trend_x5F_outline_x5F_24">
	<g>
		<path display="none" fill="#3C3C3C" d="M7.8,10.3l-1,2.2C7,12.8,7.3,12.9,7.7,13l0.6-1.3l1.3,0.6c0.2-0.3,0.4-0.6,0.5-0.9
			L7.8,10.3z"/>
		<path fill="#3C3C3C" d="M12.7,12.8l-0.9-0.5c-0.1,0.3-0.2,0.6-0.4,0.9l0.9,0.5C12.4,13.4,12.5,13.1,12.7,12.8z"/>
		<path fill="#3C3C3C" d="M5.9,14.4l-0.8,1.8c0.3,0.1,0.6,0.2,0.9,0.4l0.8-1.8C6.5,14.7,6.2,14.6,5.9,14.4z"/>
		<path display="none" fill="#3C3C3C" d="M3.5,19.8l0.9,0.4l0.8-1.8C5,18.2,4.7,18.1,4.3,18L3.5,19.8z"/>
		<path display="none" fill="#3C3C3C" d="M20.5,4.2l-0.9-0.3l-0.7,1.8c0.3,0.2,0.6,0.3,0.9,0.3L20.5,4.2z"/>
		<path display="none" fill="#3C3C3C" d="M16.3,15.7l0.9-2.3c-0.3-0.2-0.6-0.3-0.9-0.3l-0.5,1.3l-1.2-0.6c-0.2,0.3-0.4,0.6-0.5,0.9
			L16.3,15.7z"/>
		<path fill="#3C3C3C" d="M18.2,7.5l-1.3,3.6c0.3,0.1,0.6,0.2,0.9,0.4l1.3-3.6C18.8,7.8,18.5,7.7,18.2,7.5z"/>
		<path fill="#3C3C3C" d="M4,18c1.1,0,2,0.9,2,2s-0.9,2-2,2s-2-0.9-2-2S2.9,18,4,18 M4,17c-1.7,0-3,1.3-3,3s1.3,3,3,3s3-1.3,3-3
			S5.7,17,4,17L4,17z"/>
		<path fill="#3C3C3C" d="M8,9c1.1,0,2,0.9,2,2s-0.9,2-2,2s-2-0.9-2-2S6.9,9,8,9 M8,8c-1.7,0-3,1.3-3,3s1.3,3,3,3s3-1.3,3-3
			S9.7,8,8,8L8,8z"/>
		<path fill="#3C3C3C" d="M16,13c1.1,0,2,0.9,2,2s-0.9,2-2,2s-2-0.9-2-2S14.9,13,16,13 M16,12c-1.7,0-3,1.3-3,3s1.3,3,3,3s3-1.3,3-3
			S17.7,12,16,12L16,12z"/>
		<path fill="#3C3C3C" d="M20,2c1.1,0,2,0.9,2,2s-0.9,2-2,2s-2-0.9-2-2S18.9,2,20,2 M20,1c-1.7,0-3,1.3-3,3s1.3,3,3,3s3-1.3,3-3
			S21.7,1,20,1L20,1z"/>
	</g>
</g>
</svg>
