<?xml version="1.0" encoding="utf-8"?>
<!-- Generator: Adobe Illustrator 19.2.0, SVG Export Plug-In . SVG Version: 6.00 Build 0)  -->
<svg version="1.1" id="Layer_30" xmlns="http://www.w3.org/2000/svg" xmlns:xlink="http://www.w3.org/1999/xlink" x="0px" y="0px"
	 width="24px" height="24px" viewBox="0 0 24 24" enable-background="new 0 0 24 24" xml:space="preserve">
<g id="user_x5F_outline_x5F_24">
	<g>
		<path fill="#3C3C3C" d="M12,15c-3.3,0-6-2.7-6-6s2.7-6,6-6c3.3,0,6,2.7,6,6S15.3,15,12,15z M12,4C9.2,4,7,6.2,7,9s2.2,5,5,5
			c2.8,0,5-2.2,5-5S14.8,4,12,4z"/>
	</g>
	<g>
		<path fill="#3C3C3C" d="M21.9,23H2.1l0.1-0.6c0.4-3.4,2.3-6.1,5.3-7.6l0.2-0.1L8,14.9c2.5,1.4,5.6,1.4,8.1,0l0.2-0.1l0.2,0.1
			c2.9,1.4,4.9,4.2,5.3,7.6L21.9,23z M3.3,22h17.4c-0.5-2.7-2.1-4.9-4.4-6.1c-2.6,1.4-6,1.4-8.6,0C5.4,17.1,3.8,19.3,3.3,22z"/>
	</g>
</g>
</svg>
