<?xml version="1.0" encoding="utf-8"?>
<!-- Generator: Adobe Illustrator 19.2.0, SVG Export Plug-In . SVG Version: 6.00 Build 0)  -->
<svg version="1.1" id="Layer_30" xmlns="http://www.w3.org/2000/svg" xmlns:xlink="http://www.w3.org/1999/xlink" x="0px" y="0px"
	 width="18px" height="18px" viewBox="0 0 18 18" enable-background="new 0 0 18 18" xml:space="preserve">
<g id="viewmode_x5F_18">
	<g>
		<path fill="#3C3C3C" d="M9,14c-4.3,0-7.6-4.5-7.8-4.7L1,9l0.2-0.3C1.4,8.5,4.7,4,9,4s7.6,4.5,7.8,4.7L17,9l-0.2,0.3
			C16.6,9.5,13.3,14,9,14z M2.3,9c0.8,1,3.6,4,6.7,4c3.2,0,5.9-3,6.7-4C14.9,8,12.2,5,9,5C5.8,5,3.1,8,2.3,9z"/>
	</g>
	<g>
		<path fill="#3C3C3C" d="M9,12c-1.7,0-3-1.3-3-3s1.3-3,3-3s3,1.3,3,3S10.7,12,9,12z"/>
	</g>
</g>
</svg>
