<?xml version="1.0" encoding="utf-8"?>
<!-- Generator: Adobe Illustrator 19.2.0, SVG Export Plug-In . SVG Version: 6.00 Build 0)  -->
<svg version="1.1" id="Layer_30" xmlns="http://www.w3.org/2000/svg" xmlns:xlink="http://www.w3.org/1999/xlink" x="0px" y="0px"
	 width="24px" height="24px" viewBox="0 0 24 24" enable-background="new 0 0 24 24" xml:space="preserve">
<g id="viewmode_x5F_filled_x5F_24">
	<g display="none">
		<g display="inline">
			<path fill="#3C3C3C" d="M22.8,11.7c-0.2-0.3-4.9-6.5-10.8-6.5c-5.9,0-10.6,6.2-10.8,6.5L1,12l0.2,0.3c0.2,0.3,4.9,6.5,10.8,6.5
				c5.9,0,10.6-6.2,10.8-6.5L23,12L22.8,11.7z M12,17.8c-4.7,0-8.8-4.6-9.7-5.8c1-1.2,5-5.8,9.7-5.8c0.9,0,1.8,0.2,2.6,0.4
				c1.5,0.5,2.9,1.4,4.1,2.3c1.5,1.2,2.7,2.5,3.1,3.1C20.7,13.2,16.7,17.8,12,17.8z"/>
		</g>
		<g display="inline">
			<path fill="#3C3C3C" d="M16.8,12.3c-0.1,2.5-2.3,4.6-4.8,4.6c-2.7,0-4.8-2.2-4.8-4.8c0-2.7,2.2-4.8,4.8-4.8c0.5,0,1,0.1,1.5,0.2
				c-0.1,0.1-0.2,0.3-0.3,0.4C13,8,12.9,8.1,12.9,8.3c-0.2,0.4-0.3,0.8-0.3,1.2c0,1.7,1.4,3,3,3c0,0,0.1,0,0.1,0
				c0.2,0,0.4,0,0.5-0.1S16.7,12.3,16.8,12.3z"/>
		</g>
	</g>
	<g>
		<g>
			<path fill="#3C3C3C" d="M22.8,11.7c-0.2-0.3-4.9-6.5-10.8-6.5c-5.9,0-10.6,6.2-10.8,6.5L1,12l0.2,0.3c0.2,0.3,4.9,6.5,10.8,6.5
				c5.9,0,10.6-6.2,10.8-6.5L23,12L22.8,11.7z M12,17.8c-4.7,0-8.8-4.6-9.7-5.8c1-1.2,5-5.8,9.7-5.8c0.9,0,1.8,0.2,2.6,0.4
				c1.5,0.5,2.9,1.4,4.1,2.3c1.5,1.2,2.7,2.5,3.1,3.1C20.7,13.2,16.7,17.8,12,17.8z"/>
		</g>
		<g>
			<path fill="#3C3C3C" d="M16.8,12c0,0.1,0,0.2,0,0.3c-0.1,2.5-2.3,4.6-4.8,4.6c-2.7,0-4.8-2.2-4.8-4.8c0-2.7,2.2-4.8,4.8-4.8
				c0.5,0,1,0.1,1.5,0.2c0.3,0.1,0.7,0.3,1,0.4c-0.2,0.1-0.3,0.2-0.4,0.4c-0.1,0.1-0.2,0.3-0.3,0.4c-0.1,0.3-0.2,0.5-0.2,0.9
				c0,1.1,0.9,2,2,2c0,0,0.1,0,0.1,0c0.2,0,0.3,0,0.5-0.1c0.2-0.1,0.3-0.1,0.5-0.2C16.8,11.4,16.8,11.7,16.8,12z"/>
		</g>
	</g>
</g>
</svg>
